<?xml version="1.0" standalone="no"?>
<!DOCTYPE svg PUBLIC "-//W3C//DTD SVG 1.1//EN" "http://www.w3.org/Graphics/SVG/1.1/DTD/svg11.dtd" >
<svg xmlns="http://www.w3.org/2000/svg" xmlns:xlink="http://www.w3.org/1999/xlink" version="1.1">
<metadata>
Created by FontForge 20170731 at Thu Sep  5 04:55:03 2019
 By Aleksey,,,
</metadata>
<defs>
<font id="ShinGoPro-Regular-AlphaNum" horiz-adv-x="1000" vert-adv-y="1000" >
  <font-face 
    font-family="ShinGoPro-Regular-AlphaNum"
    font-weight="400"
    font-stretch="normal"
    units-per-em="1000"
    panose-1="2 0 5 3 0 0 0 0 0 0"
    ascent="800"
    descent="-200"
    bbox="18 -97 983 857"
    underline-thickness="50"
    underline-position="-200"
    unicode-range="U+2160-32BF"
  />
<missing-glyph horiz-adv-x="364" 
d="M33 0v666h265v-666h-265zM66 33h199v600h-199v-600z" />
    <glyph glyph-name=".notdef" horiz-adv-x="364" 
d="M33 0v666h265v-666h-265zM66 33h199v600h-199v-600z" />
    <glyph glyph-name=".null" horiz-adv-x="0" vert-adv-y="0" 
 />
    <glyph glyph-name="nonmarkingreturn" horiz-adv-x="333" 
 />
    <glyph glyph-name="uni2160" unicode="&#x2160;" 
d="M369 788h262v-80h-83v-628h83v-80h-262v80h83v628h-83v80z" />
    <glyph glyph-name="uni2161" unicode="&#x2161;" 
d="M229 788h542v-80h-77v-628h77v-80h-542v80h77v628h-77v80zM600 708h-200v-628h200v628z" />
    <glyph glyph-name="uni2162" unicode="&#x2162;" 
d="M157 788h686v-80h-78v-628h78v-80h-686v80h78v628h-78v80zM455 708h-131v-628h131v628zM676 708h-131v-628h131v628z" />
    <glyph glyph-name="uni2163" unicode="&#x2163;" 
d="M67 788h412v-80h-76l174 -615l173 615h-77v80h260v-80h-82l-210 -708h-127l-212 708h-64v-628h78v-80h-249v80h76v628h-76v80z" />
    <glyph glyph-name="uni2164" unicode="&#x2164;" 
d="M820 708l-251 -708h-138l-251 708h-78v80h265v-80h-80l213 -631l213 631h-80v80h265v-80h-78z" />
    <glyph glyph-name="uni2165" unicode="&#x2165;" 
d="M521 788h412v-80h-76v-628h76v-80h-249v80h78v628h-64l-212 -708h-126l-211 708h-82v80h260v-80h-77l173 -615l174 615h-76v80z" />
    <glyph glyph-name="uni2166" unicode="&#x2166;" 
d="M22 788h240v-80h-73l147 -631l151 631h-71v80h562v-80h-70v-628h70v-80h-410v80h66v628h-53l-181 -708h-128l-177 708h-73v80zM818 708h-94v-628h94v628z" />
    <glyph glyph-name="uni2167" unicode="&#x2167;" 
d="M18 788h192v-80h-52l129 -640l128 640h-52v80h619v-80h-56v-628h56v-80h-492v80h58v628h-47l-155 -708h-123l-151 708h-54v80zM697 708h-68v-628h68v628zM845 708h-68v-628h68v628z" />
    <glyph glyph-name="uni2168" unicode="&#x2168;" 
d="M85 788h437v-80h-69l133 -251l135 251h-72v80h254v-80h-77l-173 -306l185 -322h78v-80h-254v80h71l-148 270l-153 -270h73v-80h-421v80h73v628h-72v80zM347 708h-97v-628h77l192 323z" />
    <glyph glyph-name="uni2169" unicode="&#x2169;" 
d="M676 80l-176 274l-176 -274h70v-80h-258v80h79l217 327l-201 301h-74v80h257v-80h-74l160 -249l160 249h-74v80h257v-80h-74l-201 -301l217 -327h79v-80h-258v80h70z" />
    <glyph glyph-name="uni216A" unicode="&#x216a;" 
d="M478 788h437v-80h-72v-628h73v-80h-421v80h73l-153 270l-148 -270h71v-80h-254v80h78l185 322l-173 306h-77v80h254v-80h-72l135 -251l133 251h-69v80zM750 708h-97l-172 -305l192 -323h77v628z" />
    <glyph glyph-name="uni216B" unicode="&#x216b;" 
d="M481 80l-143 245l-143 -245h67v-80h-240v80h73l193 330l-173 298h-74v80h241v-80h-67l123 -212l124 212h-67v80h583v-80h-70v-628h70v-80h-564v80h67zM388 410l193 -330h53v628h-72zM818 708h-94v-628h94v628z" />
    <glyph glyph-name="uni2170" unicode="&#x2170;" 
d="M455 589h90v-589h-90v589zM447 788h106v-105h-106v105z" />
    <glyph glyph-name="uni2171" unicode="&#x2171;" 
d="M316 788h106v-105h-106v105zM325 589h89v-589h-89v589zM578 788h106v-105h-106v105zM586 589h89v-589h-89v589z" />
    <glyph glyph-name="uni2172" unicode="&#x2172;" 
d="M244 788h104v-105h-104v105zM252 589h87v-589h-87v589zM448 788h104v-105h-104v105zM456 589h88v-589h-88v589zM652 788h104v-105h-104v105zM661 589h87v-589h-87v589z" />
    <glyph glyph-name="uni2173" unicode="&#x2173;" 
d="M848 589l-178 -589h-121l-179 589h95l144 -506l145 506h94zM206 788h106v-105h-106v105zM214 589h90v-589h-90v589z" />
    <glyph glyph-name="uni2174" unicode="&#x2174;" 
d="M763 589l-207 -589h-112l-207 589h99l164 -504l164 504h99z" />
    <glyph glyph-name="uni2175" unicode="&#x2175;" 
d="M331 0l-179 589h95l102 -358l42 -148l144 506h95l-179 -589h-120zM688 788h106v-105h-106v105zM696 589h90v-589h-90v589z" />
    <glyph glyph-name="uni2176" unicode="&#x2176;" 
d="M540 589l-158 -589h-117l-157 589h92l88 -350l36 -154l35 154l88 350h93zM579 788h105v-105h-105v105zM588 589h87v-589h-87v589zM737 788h104v-105h-104v105zM745 589h88v-589h-88v589z" />
    <glyph glyph-name="uni2177" unicode="&#x2177;" 
d="M482 589l-139 -589h-111l-139 589h91l77 -348l27 -153l26 153l78 348h90zM509 788h95v-105h-95v105zM517 589h79v-589h-79v589zM639 788h95v-105h-95v105zM647 589h79v-589h-79v589zM768 788h95v-105h-95v105zM776 589h79v-589h-79v589z" />
    <glyph glyph-name="uni2178" unicode="&#x2178;" 
d="M743 0l-142 264l-143 -264h-105l180 310l-159 279h101l126 -229l126 229h101l-159 -279l179 -310h-105zM201 788h107v-105h-107v105zM209 589h91v-589h-91v589z" />
    <glyph glyph-name="uni2179" unicode="&#x2179;" 
d="M651 0l-151 264l-151 -264h-109l191 311l-173 278h107l135 -235l135 235h107l-173 -278l191 -311h-109z" />
    <glyph glyph-name="uni217A" unicode="&#x217a;" 
d="M542 0l-143 264l-142 -264h-105l179 310l-159 279h101l126 -229l126 229h101l-159 -279l180 -310h-105zM692 788h106v-105h-106v105zM700 589h91v-589h-91v589z" />
    <glyph glyph-name="uni217B" unicode="&#x217b;" 
d="M437 589h96l-149 -279l169 -310h-101l-135 263l-135 -263h-101l170 310l-150 279h96l120 -228zM593 788h104v-105h-104v105zM601 589h88v-589h-88v589zM750 788h105v-105h-105v105zM759 589h88v-589h-88v589z" />
    <glyph glyph-name="uni2460" unicode="&#x2460;" 
d="M500 854q128 0 237 -62.5t173 -172t64 -239.5q0 -196 -139 -335t-335 -139t-335 139t-139 335q0 130 64 239.5t173 172t237 62.5zM500 819q-181 0 -310 -128t-129 -311q0 -119 59 -220t160 -160t220 -59q182 0 310.5 128.5t128.5 310.5q0 183 -129 311t-310 128zM369 672
h175v-584h-67v520h-108v64z" />
    <glyph glyph-name="uni2461" unicode="&#x2461;" 
d="M500 854q128 0 237 -62.5t173 -172t64 -239.5q0 -196 -139 -335t-335 -139t-335 139t-139 335q0 130 64 239.5t173 172t237 62.5zM500 819q-181 0 -310 -128t-129 -311q0 -119 59 -220t160 -160t220 -59q182 0 310.5 128.5t128.5 310.5q0 183 -129 311t-310 128zM564 335
l-76 -29q-31 -12 -45.5 -25t-21.5 -42.5t-7 -86.5h248v-64h-313q-1 108 8 157.5t30.5 73t73.5 43.5l65 25q27 10 39.5 18.5t23 32t10.5 63.5q0 63 -18 88.5t-73 25.5q-33 0 -52.5 -8.5t-27.5 -29.5t-9.5 -39.5t-1.5 -55.5h-65q0 39 1.5 60t9.5 51t23.5 45.5t46.5 27.5t76 12
q85 0 120.5 -39t35.5 -126q0 -81 -21 -118t-80 -60z" />
    <glyph glyph-name="uni2462" unicode="&#x2462;" 
d="M500 854q128 0 237 -62.5t173 -172t64 -239.5q0 -196 -139 -335t-335 -139t-335 139t-139 335q0 130 64 239.5t173 172t237 62.5zM500 819q-181 0 -310 -128t-129 -311q0 -119 59 -220t160 -160t220 -59q182 0 310.5 128.5t128.5 310.5q0 183 -129 311t-310 128zM348 274
h65q-2 -72 14 -100.5t80 -28.5q51 0 71.5 25t20.5 84q0 30 -6.5 51t-15 31.5t-26 15.5t-29 6t-33.5 1h-40v61h45q58 0 80 16.5t22 80.5q0 48 -18 73t-70 25q-26 0 -44 -6.5t-27 -15.5t-13.5 -26.5t-5.5 -30t-1 -36.5h-66q0 31 2.5 53.5t11.5 47.5t24.5 40.5t44.5 26t70 10.5
q82 0 119 -36.5t37 -119.5q0 -51 -16 -84t-60 -47q16 -5 26.5 -10.5t25 -19.5t22 -43t7.5 -71q0 -93 -40 -129t-117 -36q-55 0 -89.5 14t-49 43.5t-18.5 58.5t-3 76z" />
    <glyph glyph-name="uni2463" unicode="&#x2463;" 
d="M500 854q128 0 237 -62.5t173 -172t64 -239.5q0 -196 -139 -335t-335 -139t-335 139t-139 335q0 130 64 239.5t173 172t237 62.5zM500 819q-181 0 -310 -128t-129 -311q0 -119 59 -220t160 -160t220 -59q182 0 310.5 128.5t128.5 310.5q0 183 -129 311t-310 128zM502 672
h93v-387h53v-63h-53v-134h-66v134h-221v73zM530 600l-159 -315h159v315z" />
    <glyph glyph-name="uni2464" unicode="&#x2464;" 
d="M500 854q128 0 237 -62.5t173 -172t64 -239.5q0 -196 -139 -335t-335 -139t-335 139t-139 335q0 130 64 239.5t173 172t237 62.5zM500 819q-181 0 -310 -128t-129 -311q0 -119 59 -220t160 -160t220 -59q182 0 310.5 128.5t128.5 310.5q0 183 -129 311t-310 128zM360 672
h291v-64h-227l-4 -167q42 35 102 35q84 0 112 -49t28 -142q0 -109 -32 -156t-125 -47q-81 0 -120 37.5t-39 135.5h66q-2 -58 16 -84t76 -26q55 0 73 27.5t18 98.5q0 82 -15 113t-70 31q-30 0 -50.5 -7t-29.5 -20.5t-11.5 -21.5t-4.5 -20h-61z" />
    <glyph glyph-name="uni2465" unicode="&#x2465;" 
d="M500 854q128 0 237 -62.5t173 -172t64 -239.5q0 -196 -139 -335t-335 -139t-335 139t-139 335q0 130 64 239.5t173 172t237 62.5zM500 819q-181 0 -310 -128t-129 -311q0 -119 59 -220t160 -160t220 -59q182 0 310.5 128.5t128.5 310.5q0 183 -129 311t-310 128zM655 519
h-65q1 52 -17 74.5t-70 22.5q-59 0 -76.5 -38.5t-18.5 -169.5q32 47 110 47q38 0 65 -11.5t42 -28.5t23.5 -42.5t10.5 -47t2 -49.5q0 -32 -1.5 -52t-9.5 -50.5t-23 -47.5t-45.5 -30.5t-73.5 -13.5q-34 0 -59.5 6t-43 15.5t-29 29t-18.5 37.5t-10 51.5t-4 60.5t-1 74
q0 67 1.5 106t7 80.5t15.5 63t28.5 40t45 25.5t64.5 7q49 0 81 -14.5t46 -40.5t18.5 -49.5t4.5 -54.5zM502 393q-54 0 -73 -32t-19 -101q0 -70 24 -93t71 -23q53 0 72 28.5t19 105.5q0 67 -22 91t-72 24z" />
    <glyph glyph-name="uni2466" unicode="&#x2466;" 
d="M500 854q128 0 237 -62.5t173 -172t64 -239.5q0 -196 -139 -335t-335 -139t-335 139t-139 335q0 130 64 239.5t173 172t237 62.5zM500 819q-181 0 -310 -128t-129 -311q0 -119 59 -220t160 -160t220 -59q182 0 310.5 128.5t128.5 310.5q0 183 -129 311t-310 128zM330 672
h339v-71l-196 -513h-74l205 520h-274v64z" />
    <glyph glyph-name="uni2467" unicode="&#x2467;" 
d="M577 391q15 -4 25 -9t25.5 -19.5t24 -45.5t8.5 -76q0 -83 -39 -121t-122 -38q-89 0 -124.5 41.5t-35.5 119.5q0 44 8.5 74.5t24 45t26 20t24.5 8.5q-14 5 -22.5 10.5t-23 19t-22 39t-7.5 60.5q0 51 13 84.5t37.5 48.5t48 20t56.5 5q72 0 111 -34.5t39 -123.5
q0 -35 -7.5 -60.5t-22 -39t-23 -19t-22.5 -10.5zM499 615q-54 0 -71 -26t-17 -73q0 -19 2.5 -32t10 -28.5t27 -24t48.5 -8.5q30 0 49.5 8.5t27.5 24.5t10 29t2 32q0 47 -17.5 72.5t-71.5 25.5zM499 359q-57 0 -76 -27.5t-19 -84.5q0 -49 18.5 -75.5t76.5 -26.5q32 0 52 8.5
t29 25.5t11.5 32t2.5 39q0 57 -20 83t-75 26zM500 854q128 0 237 -62.5t173 -172t64 -239.5q0 -196 -139 -335t-335 -139t-335 139t-139 335q0 130 64 239.5t173 172t237 62.5zM500 819q-181 0 -310 -128t-129 -311q0 -119 59 -220t160 -160t220 -59q182 0 310.5 128.5
t128.5 310.5q0 183 -129 311t-310 128z" />
    <glyph glyph-name="uni2468" unicode="&#x2468;" 
d="M500 854q128 0 237 -62.5t173 -172t64 -239.5q0 -196 -139 -335t-335 -139t-335 139t-139 335q0 130 64 239.5t173 172t237 62.5zM500 819q-181 0 -310 -128t-129 -311q0 -119 59 -220t160 -160t220 -59q182 0 310.5 128.5t128.5 310.5q0 183 -129 311t-310 128zM349 241
h65q-1 -52 16.5 -74.5t69.5 -22.5q41 0 60.5 16.5t27 58.5t8.5 133q-35 -47 -110 -47q-38 0 -65 11.5t-42 28.5t-23.5 42.5t-10.5 47t-2 49.5q0 32 1.5 52t9.5 50.5t23 47.5t45 30.5t73 13.5q34 0 59.5 -6t43 -15.5t29.5 -29t19 -38t10 -51.5t4 -61t1 -74q0 -66 -1.5 -105.5
t-7 -80.5t-15.5 -62.5t-28.5 -40t-45 -25.5t-64.5 -7q-154 0 -150 159zM502 367q54 0 72.5 31.5t18.5 101.5t-23.5 93t-70.5 23q-53 0 -72 -28.5t-19 -105.5q0 -67 21.5 -91t72.5 -24z" />
    <glyph glyph-name="uni2469" unicode="&#x2469;" 
d="M483 380q0 70 3 113t12 80.5t26.5 56.5t45.5 29.5t71 10.5t71 -10.5t45.5 -29t26.5 -56t12 -81t3 -113.5t-3 -113.5t-12 -81t-27 -56t-46 -29t-70 -10.5q-43 0 -71 10.5t-45.5 29t-26.5 56t-12 81t-3 113.5zM735 380q0 145 -16.5 186.5t-79.5 41.5q-61 0 -77 -43
t-16 -185q-1 -144 16 -186t80 -42q61 0 77 43t16 185zM500 854q128 0 237 -62.5t173 -172t64 -239.5q0 -196 -139 -335t-335 -139t-335 139t-139 335q0 130 64 239.5t173 172t237 62.5zM500 819q-181 0 -310 -128t-129 -311q0 -119 59 -220t160 -160t220 -59
q182 0 310.5 128.5t128.5 310.5q0 183 -129 311t-310 128zM197 664h170v-568h-65v506h-105v62z" />
    <glyph glyph-name="uni246A" unicode="&#x246a;" 
d="M500 854q128 0 237 -62.5t173 -172t64 -239.5q0 -196 -139 -335t-335 -139t-335 139t-139 335q0 130 64 239.5t173 172t237 62.5zM500 819q-181 0 -310 -128t-129 -311q0 -119 59 -220t160 -160t220 -59q182 0 310.5 128.5t128.5 310.5q0 183 -129 311t-310 128zM201 664
h170v-568h-65v506h-105v62zM557 664h170v-568h-65v506h-105v62z" />
    <glyph glyph-name="uni246B" unicode="&#x246b;" 
d="M500 854q128 0 237 -62.5t173 -172t64 -239.5q0 -196 -139 -335t-335 -139t-335 139t-139 335q0 130 64 239.5t173 172t237 62.5zM500 819q-181 0 -310 -128t-129 -311q0 -119 59 -220t160 -160t220 -59q182 0 310.5 128.5t128.5 310.5q0 183 -129 311t-310 128zM201 664
h170v-568h-65v506h-105v62zM699 336l-73 -28q-31 -12 -44.5 -24t-20.5 -41t-7 -85h241v-62h-304q-1 105 7.5 153t29.5 70t72 43l63 25q21 8 30 13t20.5 17t16 31.5t4.5 49.5q0 60 -18 85t-71 25q-55 0 -71.5 -27t-16.5 -88v-14h-63q0 27 0.5 42t3.5 38t8.5 36.5t17 29.5
t27.5 24.5t40 14.5t56 6q82 0 116 -38t34 -123q0 -80 -21 -116t-77 -57z" />
    <glyph glyph-name="uni246C" unicode="&#x246c;" 
d="M500 854q128 0 237 -62.5t173 -172t64 -239.5q0 -196 -139 -335t-335 -139t-335 139t-139 335q0 130 64 239.5t173 172t237 62.5zM500 819q-181 0 -310 -128t-129 -311q0 -119 59 -220t160 -160t220 -59q182 0 310.5 128.5t128.5 310.5q0 183 -129 311t-310 128zM201 664
h170v-568h-65v506h-105v62zM489 277h64q-2 -71 13 -98t77 -27q49 0 69.5 23.5t20.5 81.5q0 37 -8 59.5t-26 31t-32 10.5t-41 2h-39v59h44q57 0 78 16t21 78q0 46 -17 70.5t-68 24.5q-32 0 -51 -8t-26.5 -26.5t-9.5 -33.5t-2 -44h-64q0 39 4.5 65.5t18.5 53.5t45.5 41
t80.5 14q79 0 115.5 -36t36.5 -116q0 -50 -16 -82t-58 -45q17 -6 26 -10.5t23.5 -19t21.5 -42t7 -68.5q0 -89 -38.5 -125t-114.5 -36q-53 0 -86.5 13.5t-47.5 42.5t-18 57t-3 74z" />
    <glyph glyph-name="uni246D" unicode="&#x246d;" 
d="M669 664h90v-376h52v-61h-52v-131h-63v131h-215v70zM696 593l-154 -305h154v305zM500 854q128 0 237 -62.5t173 -172t64 -239.5q0 -196 -139 -335t-335 -139t-335 139t-139 335q0 130 64 239.5t173 172t237 62.5zM500 819q-181 0 -310 -128t-129 -311q0 -119 59 -220
t160 -160t220 -59q182 0 310.5 128.5t128.5 310.5q0 183 -129 311t-310 128zM201 664h170v-568h-65v506h-105v62z" />
    <glyph glyph-name="uni246E" unicode="&#x246e;" 
d="M500 854q128 0 237 -62.5t173 -172t64 -239.5q0 -196 -139 -335t-335 -139t-335 139t-139 335q0 130 64 239.5t173 172t237 62.5zM500 819q-181 0 -310 -128t-129 -311q0 -119 59 -220t160 -160t220 -59q182 0 310.5 128.5t128.5 310.5q0 183 -129 311t-310 128zM201 664
h170v-568h-65v506h-105v62zM503 664h282v-62h-219l-5 -163q41 34 100 34q43 0 71 -14t41.5 -41.5t18 -57.5t4.5 -73q0 -105 -31 -151t-121 -46q-78 0 -116.5 36.5t-37.5 132.5h64q-1 -57 16 -82t73 -25q55 0 72 27.5t17 98.5q0 77 -15.5 106.5t-67.5 29.5q-87 0 -93 -67h-60
z" />
    <glyph glyph-name="uni246F" unicode="&#x246f;" 
d="M792 515h-63q0 51 -17 72.5t-67 21.5q-40 0 -58.5 -15.5t-26 -57t-8.5 -128.5q33 45 107 45q45 0 74.5 -15.5t42.5 -44t17 -54t4 -60.5q0 -32 -1 -50.5t-9 -48.5t-22 -46.5t-43.5 -30t-71.5 -13.5q-46 0 -76 11.5t-47 29t-25.5 55.5t-10.5 72.5t-2 98.5q0 78 2 121
t10.5 86t25.5 62.5t46 31.5t74 12q147 0 145 -155zM643 393q-53 0 -71 -31t-18 -98t23 -90t69 -23q52 0 70 27.5t18 102.5q0 65 -21 88.5t-70 23.5zM500 854q128 0 237 -62.5t173 -172t64 -239.5q0 -196 -139 -335t-335 -139t-335 139t-139 335q0 130 64 239.5t173 172
t237 62.5zM500 819q-181 0 -310 -128t-129 -311q0 -119 59 -220t160 -160t220 -59q182 0 310.5 128.5t128.5 310.5q0 183 -129 311t-310 128zM201 664h170v-568h-65v506h-105v62z" />
    <glyph glyph-name="uni2470" unicode="&#x2470;" 
d="M500 854q128 0 237 -62.5t173 -172t64 -239.5q0 -196 -139 -335t-335 -139t-335 139t-139 335q0 130 64 239.5t173 172t237 62.5zM939 380q0 181 -128 310t-311 129q-182 0 -310.5 -128.5t-128.5 -310.5q0 -119 59 -220t160 -160t220 -59q183 0 311 129t128 310zM201 664
h170v-568h-65v506h-105v62zM483 602v62h330v-69l-191 -499h-72l200 506h-267z" />
    <glyph glyph-name="uni2471" unicode="&#x2471;" 
d="M719 391q15 -4 24.5 -9t24.5 -19.5t23 -44.5t8 -73q0 -80 -37.5 -117.5t-118.5 -37.5q-87 0 -121.5 41t-34.5 116q0 43 8.5 72.5t24 43.5t24.5 19t24 9q-13 5 -21.5 10t-22.5 18t-21.5 38t-7.5 59q0 50 12.5 82.5t36.5 47t47 19.5t55 5q69 0 107 -33.5t38 -120.5
q0 -34 -7.5 -59t-22 -38t-22 -18t-20.5 -10zM643 608q-52 0 -69 -25t-17 -71q0 -18 2 -30.5t10 -28t26.5 -23.5t47.5 -8q30 0 48.5 8t26 24t9.5 28t2 31q0 45 -17 70t-69 25zM643 360q-56 0 -74 -27t-18 -83q0 -46 18 -72t74 -26q31 0 51 8t28.5 24.5t11 31t2.5 37.5
q0 56 -19.5 81.5t-73.5 25.5zM500 854q128 0 237 -62.5t173 -172t64 -239.5q0 -196 -139 -335t-335 -139t-335 139t-139 335q0 130 64 239.5t173 172t237 62.5zM500 819q-181 0 -310 -128t-129 -311q0 -119 59 -220t160 -160t220 -59q182 0 310.5 128.5t128.5 310.5
q0 183 -129 311t-310 128zM201 664h170v-568h-65v506h-105v62z" />
    <glyph glyph-name="uni2472" unicode="&#x2472;" 
d="M494 245h64q-1 -50 16 -72t68 -22q40 0 58.5 15.5t26 57t8.5 128.5q-39 -45 -108 -45q-45 0 -74.5 15.5t-42 44t-17 54t-4.5 60.5q0 31 1 50.5t9 49t22.5 46.5t44 30t71.5 13q46 0 76 -11.5t47 -29t25.5 -55.5t10.5 -72.5t2 -98.5q0 -55 -1 -89.5t-4.5 -71.5t-10 -58
t-18 -41.5t-28.5 -30.5t-40.5 -16t-55.5 -6q-39 0 -67 10.5t-43 25.5t-23.5 38t-10.5 40.5t-2 40.5zM643 367q52 0 70.5 31t18.5 98q0 68 -23 90.5t-68 22.5q-52 0 -70.5 -28t-18.5 -102q0 -65 21 -88.5t70 -23.5zM500 854q128 0 237 -62.5t173 -172t64 -239.5
q0 -196 -139 -335t-335 -139t-335 139t-139 335q0 130 64 239.5t173 172t237 62.5zM500 819q-181 0 -310 -128t-129 -311q0 -119 59 -220t160 -160t220 -59q182 0 310.5 128.5t128.5 310.5q0 183 -129 311t-310 128zM201 664h170v-568h-65v506h-105v62z" />
    <glyph glyph-name="uni2473" unicode="&#x2473;" 
d="M500 854q128 0 237 -62.5t173 -172t64 -239.5q0 -196 -139 -335t-335 -139t-335 139t-139 335q0 130 64 239.5t173 172t237 62.5zM500 819q-181 0 -310 -128t-129 -311q0 -119 59 -220t160 -160t220 -59q182 0 310.5 128.5t128.5 310.5q0 183 -129 311t-310 128zM521 380
q0 70 3 113t12 80.5t26.5 56.5t45.5 29.5t71 10.5t71 -10.5t45.5 -29t26.5 -56t12 -81t3 -113.5t-3 -113.5t-12 -81t-26.5 -56t-45.5 -29t-71 -10.5t-71 10.5t-45.5 29t-26.5 56t-12 81t-3 113.5zM773 380q0 145 -16.5 186.5t-78.5 41.5q-61 0 -77 -43t-16 -185
q0 -145 16.5 -186.5t79.5 -41.5q60 0 76 43t16 185zM383 336l-73 -28q-31 -12 -44.5 -24t-20.5 -41t-7 -85h241v-62h-304q-1 105 7.5 153t29.5 70t72 43l63 25q21 8 30 13t20.5 17t16 31.5t4.5 49.5q0 60 -18 85t-71 25q-55 0 -71.5 -27t-16.5 -88v-14h-63q0 27 0.5 42
t3.5 38t8.5 36.5t17 29.5t27.5 24.5t40 14.5t56 6q82 0 116 -38t34 -123q0 -80 -21 -116t-77 -57z" />
    <glyph glyph-name="uni2474" unicode="&#x2474;" 
d="M192 857h42q-81 -100 -124.5 -223.5t-43.5 -253.5q0 -131 43.5 -254.5t124.5 -222.5h-42q-59 69 -97.5 150t-52 154.5t-17 108t-3.5 64.5t3.5 64.5t17 108t52 154.5t97.5 150zM766 857h42q59 -69 97.5 -150t52 -154.5t17 -108t3.5 -64.5t-3.5 -64.5t-17 -108t-52 -154.5
t-97.5 -150h-42q81 99 124.5 222.5t43.5 254.5q0 130 -43.5 253.5t-124.5 223.5zM368 684h182v-608h-70v542h-112v66z" />
    <glyph glyph-name="uni2475" unicode="&#x2475;" 
d="M192 857h42q-81 -100 -124.5 -223.5t-43.5 -253.5q0 -131 43.5 -254.5t124.5 -222.5h-42q-59 69 -97.5 150t-52 154.5t-17 108t-3.5 64.5t3.5 64.5t17 108t52 154.5t97.5 150zM766 857h42q59 -69 97.5 -150t52 -154.5t17 -108t3.5 -64.5t-3.5 -64.5t-17 -108t-52 -154.5
t-97.5 -150h-42q81 99 124.5 222.5t43.5 254.5q0 130 -43.5 253.5t-124.5 223.5zM561 333l-78 -30q-33 -13 -47.5 -26t-22.5 -44t-8 -91h259v-66h-327q-1 113 9 165.5t32 75t77 44.5l67 27q22 9 31.5 14t22.5 17.5t17.5 33.5t4.5 53q0 65 -19 92t-76 27q-27 0 -45.5 -7.5
t-28.5 -17t-14.5 -30.5t-5.5 -36.5t-1 -46.5h-67q0 39 1.5 63.5t10.5 54.5t25.5 46.5t48 28t77.5 11.5q89 0 125.5 -40.5t36.5 -132.5q0 -84 -22 -123t-83 -62z" />
    <glyph glyph-name="uni2476" unicode="&#x2476;" 
d="M192 857h42q-81 -100 -124.5 -223.5t-43.5 -253.5q0 -131 43.5 -254.5t124.5 -222.5h-42q-59 69 -97.5 150t-52 154.5t-17 108t-3.5 64.5t3.5 64.5t17 108t52 154.5t97.5 150zM766 857h42q59 -69 97.5 -150t52 -154.5t17 -108t3.5 -64.5t-3.5 -64.5t-17 -108t-52 -154.5
t-97.5 -150h-42q81 99 124.5 222.5t43.5 254.5q0 130 -43.5 253.5t-124.5 223.5zM336 270h69q-2 -76 14.5 -105.5t82.5 -29.5q53 0 74.5 26t21.5 87q0 39 -8.5 63t-28 33.5t-34 11.5t-43.5 2h-42v64h47q61 0 83 17t22 83q0 50 -18 76t-73 26q-27 0 -45.5 -7t-28 -15.5
t-14.5 -27.5t-6 -31t-1 -38h-68q0 42 5 70.5t20 57.5t49 43.5t86 14.5q85 0 123.5 -38.5t38.5 -124.5q0 -55 -17 -88.5t-62 -48.5q17 -5 27 -10.5t25.5 -20t23.5 -44.5t8 -74q0 -100 -43.5 -136.5t-121.5 -36.5q-56 0 -91 14t-51 44t-20.5 61.5t-3.5 81.5z" />
    <glyph glyph-name="uni2477" unicode="&#x2477;" 
d="M493 684h97v-403h55v-65h-55v-140h-68v140h-230v75zM522 609l-165 -328h165v328zM192 857h42q-81 -100 -124.5 -223.5t-43.5 -253.5q0 -131 43.5 -254.5t124.5 -222.5h-42q-59 69 -97.5 150t-52 154.5t-17 108t-3.5 64.5t3.5 64.5t17 108t52 154.5t97.5 150zM766 857h42
q59 -69 97.5 -150t52 -154.5t17 -108t3.5 -64.5t-3.5 -64.5t-17 -108t-52 -154.5t-97.5 -150h-42q81 99 124.5 222.5t43.5 254.5q0 130 -43.5 253.5t-124.5 223.5z" />
    <glyph glyph-name="uni2478" unicode="&#x2478;" 
d="M192 857h42q-81 -100 -124.5 -223.5t-43.5 -253.5q0 -131 43.5 -254.5t124.5 -222.5h-42q-59 69 -97.5 150t-52 154.5t-17 108t-3.5 64.5t3.5 64.5t17 108t52 154.5t97.5 150zM766 857h42q59 -69 97.5 -150t52 -154.5t17 -108t3.5 -64.5t-3.5 -64.5t-17 -108t-52 -154.5
t-97.5 -150h-42q81 99 124.5 222.5t43.5 254.5q0 130 -43.5 253.5t-124.5 223.5zM349 684h304v-66h-236l-5 -175q41 37 107 37q46 0 75.5 -14.5t44.5 -44t20 -62t5 -79.5q0 -112 -33 -161.5t-130 -49.5q-85 0 -125.5 40t-39.5 141h68q-2 -61 17 -88t78 -27t77.5 30t18.5 107
q0 82 -17 113.5t-72 31.5q-32 0 -53 -7.5t-30 -21t-12 -22.5t-5 -22h-64z" />
    <glyph glyph-name="uni2479" unicode="&#x2479;" 
d="M660 525h-68q0 55 -18.5 77.5t-72.5 22.5q-62 0 -79.5 -40.5t-19.5 -174.5q39 48 115 48q39 0 68 -12t44 -29.5t24 -44.5t11 -49t2 -51q0 -33 -1.5 -54t-10 -52.5t-24 -50t-47 -32.5t-76.5 -14q-41 0 -70 7t-48 25t-30 37.5t-16 57.5t-6.5 70.5t-1.5 90.5q0 59 1 95
t4.5 76t10.5 62t19 44.5t30 33t43.5 17t59.5 6.5q159 0 157 -166zM500 394q-56 0 -75.5 -33.5t-19.5 -105.5q0 -73 24.5 -97t73.5 -24q55 0 75 29.5t20 110.5q0 70 -23 95t-75 25zM192 857h42q-81 -100 -124.5 -223.5t-43.5 -253.5q0 -131 43.5 -254.5t124.5 -222.5h-42
q-59 69 -97.5 150t-52 154.5t-17 108t-3.5 64.5t3.5 64.5t17 108t52 154.5t97.5 150zM766 857h42q59 -69 97.5 -150t52 -154.5t17 -108t3.5 -64.5t-3.5 -64.5t-17 -108t-52 -154.5t-97.5 -150h-42q81 99 124.5 222.5t43.5 254.5q0 130 -43.5 253.5t-124.5 223.5z" />
    <glyph glyph-name="uni247A" unicode="&#x247a;" 
d="M192 857h42q-81 -100 -124.5 -223.5t-43.5 -253.5q0 -131 43.5 -254.5t124.5 -222.5h-42q-59 69 -97.5 150t-52 154.5t-17 108t-3.5 64.5t3.5 64.5t17 108t52 154.5t97.5 150zM766 857h42q59 -69 97.5 -150t52 -154.5t17 -108t3.5 -64.5t-3.5 -64.5t-17 -108t-52 -154.5
t-97.5 -150h-42q81 99 124.5 222.5t43.5 254.5q0 130 -43.5 253.5t-124.5 223.5zM323 684h354v-73l-205 -535h-77l214 542h-286v66z" />
    <glyph glyph-name="uni247B" unicode="&#x247b;" 
d="M581 392q17 -5 27 -10t26.5 -20.5t25 -47.5t8.5 -79q0 -86 -41 -126t-127 -40q-93 0 -130 43t-37 125q0 132 86 155q-14 5 -23 10.5t-24 19.5t-23 40.5t-8 63.5q0 53 13.5 87.5t38.5 50.5t50 21.5t60 5.5q75 0 115.5 -36.5t40.5 -128.5q0 -37 -8 -63.5t-23 -40.5
t-24 -19.5t-23 -10.5zM500 625q-57 0 -74.5 -27.5t-17.5 -76.5q0 -15 1 -25.5t6 -25t14 -23.5t27.5 -15.5t43.5 -6.5q32 0 52.5 9t28 26.5t9.5 30t2 32.5q0 48 -17.5 75t-74.5 27zM500 359q-60 0 -79.5 -29.5t-19.5 -88.5q0 -50 19.5 -78t79.5 -28q33 0 54.5 8.5t30.5 26
t11.5 33.5t2.5 41q0 60 -20.5 87.5t-78.5 27.5zM192 857h42q-81 -100 -124.5 -223.5t-43.5 -253.5q0 -131 43.5 -254.5t124.5 -222.5h-42q-59 69 -97.5 150t-52 154.5t-17 108t-3.5 64.5t3.5 64.5t17 108t52 154.5t97.5 150zM766 857h42q59 -69 97.5 -150t52 -154.5t17 -108
t3.5 -64.5t-3.5 -64.5t-17 -108t-52 -154.5t-97.5 -150h-42q81 99 124.5 222.5t43.5 254.5q0 130 -43.5 253.5t-124.5 223.5z" />
    <glyph glyph-name="uni247C" unicode="&#x247c;" 
d="M340 235h68q0 -55 18.5 -77.5t72.5 -22.5q62 0 79.5 40t19.5 175q-39 -48 -115 -48q-39 0 -68 12t-44 29.5t-24 44.5t-11 49t-2 51q0 34 1.5 54.5t9.5 52.5t24 50t47.5 32t76.5 14q41 0 70 -7t48 -25t30 -37.5t16 -57.5t6.5 -70.5t1.5 -90.5q0 -69 -1.5 -109.5t-7 -83.5
t-16.5 -65.5t-29.5 -42t-46.5 -26.5t-68 -7q-159 0 -156 166zM500 366q56 0 75.5 33.5t19.5 105.5q0 73 -24.5 97t-73.5 24q-55 0 -75 -29.5t-20 -109.5q0 -71 23 -96t75 -25zM192 857h42q-81 -100 -124.5 -223.5t-43.5 -253.5q0 -131 43.5 -254.5t124.5 -222.5h-42
q-59 69 -97.5 150t-52 154.5t-17 108t-3.5 64.5t3.5 64.5t17 108t52 154.5t97.5 150zM766 857h42q59 -69 97.5 -150t52 -154.5t17 -108t3.5 -64.5t-3.5 -64.5t-17 -108t-52 -154.5t-97.5 -150h-42q81 99 124.5 222.5t43.5 254.5q0 130 -43.5 253.5t-124.5 223.5z" />
    <glyph glyph-name="uni247D" unicode="&#x247d;" 
d="M479 380q0 73 3 118t12.5 84t28.5 59t48 30.5t73 10.5t73 -10.5t48 -30t28.5 -58.5t12.5 -84.5t3 -118.5t-3 -118.5t-12.5 -84.5t-28.5 -58.5t-48 -30t-73 -10.5t-73 10.5t-48 30t-28.5 58.5t-12.5 84.5t-3 118.5zM742 380q0 151 -17 194t-82 43q-63 0 -80 -44.5
t-17 -192.5q0 -151 17.5 -194t82.5 -43q63 0 79.5 44t16.5 193zM192 857h42q-81 -100 -124.5 -223.5t-43.5 -253.5q0 -131 43.5 -254.5t124.5 -222.5h-42q-59 69 -97.5 150t-52 154.5t-17 108t-3.5 64.5t3.5 64.5t17 108t52 154.5t97.5 150zM766 857h42q59 -69 97.5 -150
t52 -154.5t17 -108t3.5 -64.5t-3.5 -64.5t-17 -108t-52 -154.5t-97.5 -150h-42q81 99 124.5 222.5t43.5 254.5q0 130 -43.5 253.5t-124.5 223.5zM194 676h177v-592h-67v527h-110v65z" />
    <glyph glyph-name="uni247E" unicode="&#x247e;" 
d="M192 857h42q-81 -100 -124.5 -223.5t-43.5 -253.5q0 -131 43.5 -254.5t124.5 -222.5h-42q-59 69 -97.5 150t-52 154.5t-17 108t-3.5 64.5t3.5 64.5t17 108t52 154.5t97.5 150zM766 857h42q59 -69 97.5 -150t52 -154.5t17 -108t3.5 -64.5t-3.5 -64.5t-17 -108t-52 -154.5
t-97.5 -150h-42q81 99 124.5 222.5t43.5 254.5q0 130 -43.5 253.5t-124.5 223.5zM564 676h177v-592h-68v527h-109v65zM194 676h177v-592h-67v527h-110v65z" />
    <glyph glyph-name="uni247F" unicode="&#x247f;" 
d="M192 857h42q-81 -100 -124.5 -223.5t-43.5 -253.5q0 -131 43.5 -254.5t124.5 -222.5h-42q-59 69 -97.5 150t-52 154.5t-17 108t-3.5 64.5t3.5 64.5t17 108t52 154.5t97.5 150zM766 857h42q59 -69 97.5 -150t52 -154.5t17 -108t3.5 -64.5t-3.5 -64.5t-17 -108t-52 -154.5
t-97.5 -150h-42q81 99 124.5 222.5t43.5 254.5q0 130 -43.5 253.5t-124.5 223.5zM178 676h176v-592h-67v527h-109v65zM710 334l-76 -28q-47 -17 -61.5 -45t-14.5 -112h252v-65h-317q-1 83 2.5 129t18.5 76.5t34 43t59 28.5l66 26q20 8 30.5 14t22 18t16 32.5t4.5 50.5
q0 63 -18.5 89t-73.5 26q-33 0 -52.5 -8.5t-28 -29t-10 -39.5t-1.5 -56h-66q0 38 1.5 62t10.5 52.5t25 45t47 27.5t75 11q86 0 121.5 -39.5t35.5 -128.5q0 -83 -21.5 -120.5t-80.5 -59.5z" />
    <glyph glyph-name="uni2480" unicode="&#x2480;" 
d="M192 857h42q-81 -100 -124.5 -223.5t-43.5 -253.5q0 -131 43.5 -254.5t124.5 -222.5h-42q-59 69 -97.5 150t-52 154.5t-17 108t-3.5 64.5t3.5 64.5t17 108t52 154.5t97.5 150zM766 857h42q59 -69 97.5 -150t52 -154.5t17 -108t3.5 -64.5t-3.5 -64.5t-17 -108t-52 -154.5
t-97.5 -150h-42q81 99 124.5 222.5t43.5 254.5q0 130 -43.5 253.5t-124.5 223.5zM178 676h176v-592h-67v527h-109v65zM492 273h66q-2 -73 14.5 -101.5t80.5 -28.5q50 0 71.5 24.5t21.5 84.5q0 26 -4 45t-13 30.5t-17 18t-23.5 9.5t-25 3.5t-28.5 0.5h-41v62h46q59 0 81 16.5
t22 80.5q0 49 -18 74t-71 25q-33 0 -53 -8t-28 -27.5t-9.5 -34.5t-1.5 -46h-67q0 41 4.5 68t19 55.5t47.5 43t84 14.5q83 0 120.5 -37.5t37.5 -120.5q0 -54 -17 -86.5t-60 -46.5q16 -5 26.5 -10.5t25.5 -20t22.5 -43.5t7.5 -71q0 -96 -41.5 -132t-118.5 -36q-45 0 -76 10.5
t-48 26.5t-25.5 44t-10.5 52t-1 62z" />
    <glyph glyph-name="uni2481" unicode="&#x2481;" 
d="M675 676h94v-392h54v-63h-54v-137h-66v137h-223v73zM703 602l-160 -318h160v318zM192 857h42q-81 -100 -124.5 -223.5t-43.5 -253.5q0 -131 43.5 -254.5t124.5 -222.5h-42q-59 69 -97.5 150t-52 154.5t-17 108t-3.5 64.5t3.5 64.5t17 108t52 154.5t97.5 150zM766 857h42
q59 -69 97.5 -150t52 -154.5t17 -108t3.5 -64.5t-3.5 -64.5t-17 -108t-52 -154.5t-97.5 -150h-42q81 99 124.5 222.5t43.5 254.5q0 130 -43.5 253.5t-124.5 223.5zM178 676h176v-592h-67v527h-109v65z" />
    <glyph glyph-name="uni2482" unicode="&#x2482;" 
d="M192 857h42q-81 -100 -124.5 -223.5t-43.5 -253.5q0 -131 43.5 -254.5t124.5 -222.5h-42q-59 69 -97.5 150t-52 154.5t-17 108t-3.5 64.5t3.5 64.5t17 108t52 154.5t97.5 150zM766 857h42q59 -69 97.5 -150t52 -154.5t17 -108t3.5 -64.5t-3.5 -64.5t-17 -108t-52 -154.5
t-97.5 -150h-42q81 99 124.5 222.5t43.5 254.5q0 130 -43.5 253.5t-124.5 223.5zM178 676h176v-592h-67v527h-109v65zM506 676h295v-65h-229l-5 -170q13 11 22 17t31 12.5t51 6.5q45 0 74 -14t43 -43t19 -60t5 -77q0 -109 -32.5 -157t-126.5 -48q-82 0 -121.5 38.5
t-38.5 137.5h67q-2 -60 16 -85.5t76 -25.5q55 0 74 27.5t19 99.5q0 82 -15.5 114t-71.5 32q-30 0 -50.5 -7.5t-29.5 -20.5t-12 -21.5t-5 -20.5h-61z" />
    <glyph glyph-name="uni2483" unicode="&#x2483;" 
d="M808 521h-67q1 52 -16.5 74.5t-70.5 22.5q-60 0 -78 -39t-19 -170q11 13 19 20.5t33.5 17t59.5 9.5q38 0 65.5 -11.5t42 -28t23 -42.5t11 -48t2.5 -51q0 -33 -1 -53t-9.5 -51t-23.5 -48.5t-45.5 -31t-74.5 -13.5q-34 0 -59.5 6t-43.5 15.5t-30 29t-18.5 38t-10 52
t-4.5 62t-1 75.5q0 68 1.5 108t7 81.5t16 63.5t28.5 40.5t45 25.5t66 7q154 0 152 -161zM653 394q-55 0 -74 -32.5t-19 -102.5q0 -71 24 -94.5t72 -23.5q53 0 72 29t19 107q0 68 -22 92.5t-72 24.5zM192 857h42q-81 -100 -124.5 -223.5t-43.5 -253.5q0 -131 43.5 -254.5
t124.5 -222.5h-42q-59 69 -97.5 150t-52 154.5t-17 108t-3.5 64.5t3.5 64.5t17 108t52 154.5t97.5 150zM766 857h42q59 -69 97.5 -150t52 -154.5t17 -108t3.5 -64.5t-3.5 -64.5t-17 -108t-52 -154.5t-97.5 -150h-42q81 99 124.5 222.5t43.5 254.5q0 130 -43.5 253.5
t-124.5 223.5zM178 676h176v-592h-67v527h-109v65z" />
    <glyph glyph-name="uni2484" unicode="&#x2484;" 
d="M192 857h42q-81 -100 -124.5 -223.5t-43.5 -253.5q0 -131 43.5 -254.5t124.5 -222.5h-42q-59 69 -97.5 150t-52 154.5t-17 108t-3.5 64.5t3.5 64.5t17 108t52 154.5t97.5 150zM766 857h42q59 -69 97.5 -150t52 -154.5t17 -108t3.5 -64.5t-3.5 -64.5t-17 -108t-52 -154.5
t-97.5 -150h-42q81 99 124.5 222.5t43.5 254.5q0 130 -43.5 253.5t-124.5 223.5zM178 676h176v-592h-67v527h-109v65zM481 676h343v-72l-199 -520h-74l208 527h-278v65z" />
    <glyph glyph-name="uni2485" unicode="&#x2485;" 
d="M731 391q15 -4 25.5 -9t26 -20t24 -46t8.5 -77q0 -81 -39 -121t-123 -40q-92 0 -127.5 43t-35.5 121q0 126 84 149q-14 5 -23 10.5t-23.5 19.5t-22 39.5t-7.5 61.5q0 51 13 85t37.5 49t49 20.5t57.5 5.5q73 0 112.5 -35.5t39.5 -124.5q0 -36 -8 -61.5t-22.5 -39.5
t-23 -19.5t-22.5 -10.5zM653 618q-55 0 -72.5 -26t-17.5 -75q0 -19 2.5 -32t10 -29t27.5 -24.5t50 -8.5t49.5 8.5t27.5 25.5t10 30t2 32q0 47 -17.5 73t-71.5 26zM653 359q-59 0 -78 -28.5t-19 -85.5q0 -23 3 -38.5t12 -31.5t29.5 -24.5t51.5 -8.5q32 0 53 8.5t30 26
t11.5 33t2.5 38.5q0 57 -20 84t-76 27zM192 857h42q-81 -100 -124.5 -223.5t-43.5 -253.5q0 -131 43.5 -254.5t124.5 -222.5h-42q-59 69 -97.5 150t-52 154.5t-17 108t-3.5 64.5t3.5 64.5t17 108t52 154.5t97.5 150zM766 857h42q59 -69 97.5 -150t52 -154.5t17 -108
t3.5 -64.5t-3.5 -64.5t-17 -108t-52 -154.5t-97.5 -150h-42q81 99 124.5 222.5t43.5 254.5q0 130 -43.5 253.5t-124.5 223.5zM178 676h176v-592h-67v527h-109v65z" />
    <glyph glyph-name="uni2486" unicode="&#x2486;" 
d="M496 239h66q-1 -52 17 -74.5t71 -22.5q59 0 77 38.5t19 170.5q-36 -47 -112 -47q-38 0 -65.5 11.5t-42 28t-23 42.5t-11 48t-2.5 51q0 32 1 52t9.5 51t23.5 48.5t45.5 31.5t74.5 14q40 0 68.5 -6.5t47 -24.5t29 -37t15.5 -55.5t6.5 -68t1.5 -87.5q0 -67 -1.5 -107
t-7 -81.5t-16 -63.5t-29 -40.5t-45.5 -25.5t-66 -7q-47 0 -79 14t-47 39.5t-20 50.5t-5 57zM651 366q54 0 73 32.5t19 102.5q0 71 -24 94.5t-71 23.5q-54 0 -73 -29t-19 -107q0 -68 22 -92.5t73 -24.5zM192 857h42q-81 -100 -124.5 -223.5t-43.5 -253.5q0 -131 43.5 -254.5
t124.5 -222.5h-42q-59 69 -97.5 150t-52 154.5t-17 108t-3.5 64.5t3.5 64.5t17 108t52 154.5t97.5 150zM766 857h42q59 -69 97.5 -150t52 -154.5t17 -108t3.5 -64.5t-3.5 -64.5t-17 -108t-52 -154.5t-97.5 -150h-42q81 99 124.5 222.5t43.5 254.5q0 130 -43.5 253.5
t-124.5 223.5zM178 676h176v-592h-67v527h-109v65z" />
    <glyph glyph-name="uni2487" unicode="&#x2487;" 
d="M520 380q0 73 3 117.5t12.5 84t28 59t48 30.5t73.5 11t73.5 -11t48 -30.5t28 -58.5t12.5 -84t3 -118t-3 -118t-12.5 -84t-28 -58.5t-48 -30.5t-73.5 -11t-73.5 11t-48 30.5t-28 58.5t-12.5 84t-3 118zM783 380q0 151 -17 194t-83 43q-63 0 -79.5 -44.5t-16.5 -192.5
q0 -151 17 -194t82 -43q64 0 80.5 44.5t16.5 192.5zM192 857h42q-81 -100 -124.5 -223.5t-43.5 -253.5q0 -131 43.5 -254.5t124.5 -222.5h-42q-59 69 -97.5 150t-52 154.5t-17 108t-3.5 64.5t3.5 64.5t17 108t52 154.5t97.5 150zM766 857h42q59 -69 97.5 -150t52 -154.5
t17 -108t3.5 -64.5t-3.5 -64.5t-17 -108t-52 -154.5t-97.5 -150h-42q81 99 124.5 222.5t43.5 254.5q0 130 -43.5 253.5t-124.5 223.5zM373 334l-76 -28q-46 -17 -61 -45t-15 -112h252v-65h-317q-2 110 8 162t32 74t74 42l66 25q27 10 39.5 18.5t23 32.5t10.5 65
q0 62 -18.5 88t-73.5 26q-33 0 -52.5 -8.5t-28 -29.5t-10 -40t-1.5 -55h-66q0 38 1.5 62t10.5 52.5t25 45t47 27.5t75 11q86 0 121.5 -39.5t35.5 -128.5q0 -83 -21.5 -120.5t-80.5 -59.5z" />
    <glyph glyph-name="uni2488" unicode="&#x2488;" 
d="M335 788h247v-788h-97v701h-150v87zM853 112h104v-112h-104v112z" />
    <glyph glyph-name="uni2489" unicode="&#x2489;" 
d="M853 112h104v-112h-104v112zM600 318l-177 -31q-36 -6 -55 -12.5t-41.5 -24t-32.5 -52t-10 -88.5v-23h530v-87h-626v57q0 160 43.5 226t161.5 86l179 31q77 13 112.5 45t35.5 107q0 83 -44 120.5t-158 37.5q-128 0 -174.5 -39.5t-46.5 -141.5h-96q1 145 71.5 206
t237.5 61q39 0 67.5 -2.5t67.5 -9.5t66.5 -23.5t53 -41.5t38.5 -67t13 -96q0 -113 -50 -160q-64 -60 -166 -78z" />
    <glyph glyph-name="uni248A" unicode="&#x248a;" 
d="M853 112h104v-112h-104v112zM184 265h97q0 -20 -0.5 -39.5t4 -38t11.5 -35t23.5 -30t39.5 -23.5t59 -15.5t83 -5.5q54 0 88.5 4.5t67 19t48 44.5t15.5 77q0 15 -0.5 24.5t-4 26t-9.5 28t-19 24.5t-30.5 21.5t-44.5 14t-62 5.5h-118v81h119q26 0 40.5 1t40.5 7.5t40.5 19
t26 38t11.5 61.5q0 77 -47.5 106t-145.5 29q-73 0 -119.5 -12t-67 -36.5t-27 -48t-6.5 -61.5h-97q4 86 31 137t95.5 79t187.5 28q27 0 43.5 -0.5t50.5 -4.5t57 -11.5t52 -23t46.5 -37.5t30 -56.5t12.5 -78.5q0 -141 -117 -174q126 -43 126 -189q0 -46 -11.5 -82t-29 -59.5
t-44.5 -40.5t-52 -26t-58 -14t-55.5 -6t-51.5 -1q-186 0 -257.5 61t-71.5 212z" />
    <glyph glyph-name="uni248B" unicode="&#x248b;" 
d="M581 788h133v-518h136v-86h-136v-184h-95v184h-469v107zM619 270v436l-375 -436h375zM853 112h104v-112h-104v112z" />
    <glyph glyph-name="uni248C" unicode="&#x248c;" 
d="M853 112h104v-112h-104v112zM215 788h567v-87h-476l-6 -238q20 18 37 29t68 23.5t120 12.5q48 0 85.5 -5.5t77 -22.5t66 -45.5t43 -77.5t16.5 -115q0 -67 -14 -114t-48 -83.5t-97 -54.5t-156 -18q-175 0 -242 60t-71 188h97q0 -23 1 -34.5t5 -31.5t12 -31t23.5 -25.5
t38.5 -21.5t57.5 -12.5t79.5 -5.5q118 0 168.5 37.5t50.5 136.5q0 46 -6.5 76t-26.5 58.5t-62.5 42.5t-109.5 14q-58 0 -98 -7t-63 -21t-34 -27t-21 -33h-90z" />
    <glyph glyph-name="uni248D" unicode="&#x248d;" 
d="M853 112h104v-112h-104v112zM803 574h-96q1 31 -5.5 52.5t-25 42t-59.5 31t-104 10.5q-146 0 -185 -65q-49 -80 -45 -245q66 95 242 95q58 0 104.5 -9.5t91.5 -34.5t70 -76t25 -126q0 -67 -19 -115.5t-47.5 -75.5t-72 -42.5t-81.5 -19.5t-87 -4q-125 0 -193 35
t-98.5 118.5t-30.5 237.5q0 79 8.5 141t22 105.5t37.5 74t49 48.5t61.5 28t69.5 13t80 3q25 0 41.5 -0.5t50 -5t56.5 -12t52 -24t46.5 -39.5t30 -59t11.5 -82zM505 411q-59 0 -101 -11.5t-63.5 -28t-34 -42.5t-15 -46t-2.5 -47q0 -42 14 -72.5t34.5 -47t52 -26t56.5 -11.5
t58 -2q124 0 170 38t46 135q0 42 -12 72.5t-30.5 47.5t-49 26.5t-57.5 12t-66 2.5z" />
    <glyph glyph-name="uni248E" unicode="&#x248e;" 
d="M180 788h642v-90l-397 -698h-118l416 701h-543v87zM853 112h104v-112h-104v112z" />
    <glyph glyph-name="uni248F" unicode="&#x248f;" 
d="M690 412q44 -13 73.5 -41t40.5 -63t14 -55t3 -40q0 -66 -25 -111.5t-72 -68.5t-100 -32t-124 -9q-74 0 -129.5 10t-100 34t-68 69t-23.5 109q0 13 1 25.5t8 41.5t19 51.5t39 45.5t64 34q-57 19 -85 67.5t-28 107.5q0 48 14 84.5t41 58.5t55 36.5t67 20t65.5 7.5t60.5 2
q29 0 52 -1t56 -6t58 -13t52 -23.5t44 -37t28.5 -54.5t11.5 -74q0 -59 -28 -107.5t-84 -67.5zM500 712q-65 0 -107.5 -9t-64 -28t-29.5 -41t-8 -54q0 -36 14.5 -62t34.5 -39.5t52.5 -20.5t56 -8.5t58.5 -1.5q98 0 149.5 29.5t51.5 106.5q0 67 -46 97.5t-162 30.5zM500 77
q131 0 179 33.5t48 112.5q0 84 -55 115t-172 31q-124 0 -175.5 -33t-51.5 -115q0 -80 49.5 -112t177.5 -32zM853 112h104v-112h-104v112z" />
    <glyph glyph-name="uni2490" unicode="&#x2490;" 
d="M853 112h104v-112h-104v112zM182 224h96q0 -21 0.5 -32t4.5 -29.5t11.5 -28.5t23 -22.5t37.5 -19t56 -11t78 -4.5q102 0 145 21.5t62 73.5q32 85 26 220q-19 -27 -38 -44t-71.5 -34t-128.5 -17q-22 0 -39 1t-49 6t-56.5 13.5t-54 27t-48.5 43.5t-32 64.5t-13 89.5
q0 67 22 116.5t52.5 75t76.5 40.5t80 18.5t77 3.5q184 0 251 -84t67 -313q0 -103 -13.5 -175t-37.5 -117.5t-66 -71t-90 -34.5t-119 -9q-164 0 -236.5 49.5t-73.5 182.5zM501 380q67 0 111.5 12.5t66 37.5t29 53t7.5 69q0 45 -16.5 77t-37.5 47.5t-55 24t-53 9.5t-48 1
q-121 0 -169.5 -37t-48.5 -134q0 -83 47 -121.5t167 -38.5z" />
    <glyph glyph-name="uni249C" unicode="&#x249c;" 
d="M735 480v-254q0 -70 15 -108h-83q-7 26 -9 66q-22 -38 -62 -54t-132 -16q-34 0 -55 1t-54.5 9.5t-53 23.5t-34.5 46t-15 75q0 84 46 120t112 39l189 7q15 0 22 1.5t16.5 6.5t13.5 17t4 32q0 48 -32.5 64t-120.5 16q-78 0 -110 -17t-34 -71h-86q1 87 57 125.5t171 38.5
q77 0 126 -12t71.5 -37t30 -51.5t7.5 -67.5zM655 315v69q-16 -20 -53 -20l-164 -6q-34 -1 -56 -9.5t-31.5 -23t-12.5 -27t-3 -30.5q0 -47 36 -63.5t103 -16.5q26 0 45.5 1.5t46.5 9t45 20t31 37.5t13 59zM192 857h42q-81 -100 -124.5 -223.5t-43.5 -253.5
q0 -131 43.5 -254.5t124.5 -222.5h-42q-59 69 -97.5 150t-52 154.5t-17 108t-3.5 64.5t3.5 64.5t17 108t52 154.5t97.5 150zM766 857h42q59 -69 97.5 -150t52 -154.5t17 -108t3.5 -64.5t-3.5 -64.5t-17 -108t-52 -154.5t-97.5 -150h-42q81 99 124.5 222.5t43.5 254.5
q0 130 -43.5 253.5t-124.5 223.5z" />
    <glyph glyph-name="uni249D" unicode="&#x249d;" 
d="M276 739h84v-231q28 36 67 50t103 14q129 0 178 -65.5t49 -200.5q0 -63 -8.5 -107t-32 -83t-70 -58t-116.5 -19q-74 0 -111 18t-61 49l-5 -58h-77v691zM515 498q-89 0 -122 -44t-33 -150t34.5 -148t121.5 -42q53 0 85.5 13t47 42.5t18.5 58t4 78.5t-4.5 79.5t-19.5 58
t-47.5 41.5t-84.5 13zM192 857h42q-81 -100 -124.5 -223.5t-43.5 -253.5q0 -131 43.5 -254.5t124.5 -222.5h-42q-59 69 -97.5 150t-52 154.5t-17 108t-3.5 64.5t3.5 64.5t17 108t52 154.5t97.5 150zM766 857h42q59 -69 97.5 -150t52 -154.5t17 -108t3.5 -64.5t-3.5 -64.5
t-17 -108t-52 -154.5t-97.5 -150h-42q81 99 124.5 222.5t43.5 254.5q0 130 -43.5 253.5t-124.5 223.5z" />
    <glyph glyph-name="uni249E" unicode="&#x249e;" 
d="M192 857h42q-81 -100 -124.5 -223.5t-43.5 -253.5q0 -131 43.5 -254.5t124.5 -222.5h-42q-59 69 -97.5 150t-52 154.5t-17 108t-3.5 64.5t3.5 64.5t17 108t52 154.5t97.5 150zM766 857h42q59 -69 97.5 -150t52 -154.5t17 -108t3.5 -64.5t-3.5 -64.5t-17 -108t-52 -154.5
t-97.5 -150h-42q81 99 124.5 222.5t43.5 254.5q0 130 -43.5 253.5t-124.5 223.5zM738 456h-84q-1 30 -9.5 51t-21.5 32.5t-34.5 18t-41.5 8.5t-49 2q-47 0 -73.5 -5t-50.5 -23.5t-34 -56.5t-10 -100q0 -110 33 -150t133 -40q85 0 122.5 22.5t40.5 98.5h84
q-4 -113 -59.5 -156.5t-179.5 -43.5q-145 0 -202.5 56.5t-57.5 210.5q0 149 55 207.5t199 58.5q22 0 36 -0.5t42.5 -4t47.5 -10.5t43 -21t38 -33.5t24 -51t9 -70.5z" />
    <glyph glyph-name="uni249F" unicode="&#x249f;" 
d="M636 739h84v-691h-77l-6 58q-15 -20 -31 -32.5t-53 -23.5t-89 -11q-122 0 -173.5 64t-51.5 205q0 142 53.5 203t173.5 61q74 0 110.5 -17t59.5 -48v232zM480 498q-36 0 -62.5 -6t-43.5 -20.5t-27 -29.5t-14.5 -41t-6 -47.5t-1.5 -55.5q0 -48 5 -77.5t20.5 -56t47.5 -38.5
t83 -12q50 0 82 13.5t47.5 42t20.5 59.5t5 78q0 103 -33.5 147t-122.5 44zM192 857h42q-81 -100 -124.5 -223.5t-43.5 -253.5q0 -131 43.5 -254.5t124.5 -222.5h-42q-59 69 -97.5 150t-52 154.5t-17 108t-3.5 64.5t3.5 64.5t17 108t52 154.5t97.5 150zM766 857h42
q59 -69 97.5 -150t52 -154.5t17 -108t3.5 -64.5t-3.5 -64.5t-17 -108t-52 -154.5t-97.5 -150h-42q81 99 124.5 222.5t43.5 254.5q0 130 -43.5 253.5t-124.5 223.5z" />
    <glyph glyph-name="uni24A0" unicode="&#x24a0;" 
d="M746 355h-414q0 -46 4.5 -70t20.5 -48.5t52 -34.5t97 -10t92.5 10t43.5 29t16 56h88q-7 -89 -62.5 -131t-173.5 -42q-80 0 -132 15.5t-80.5 49.5t-39.5 79.5t-11 114.5q0 49 3 80t16.5 72t39 65t74 41t117.5 17q45 0 81 -5.5t61.5 -18.5t44 -26.5t30 -35.5t18.5 -40
t10 -46.5t3.5 -47.5t0.5 -50v-23zM332 424h327q-1 23 -2.5 34.5t-5 30.5t-10 28.5t-18 21.5t-27.5 18t-40.5 10t-56.5 4q-89 0 -126 -31t-41 -116zM192 857h42q-81 -100 -124.5 -223.5t-43.5 -253.5q0 -131 43.5 -254.5t124.5 -222.5h-42q-59 69 -97.5 150t-52 154.5
t-17 108t-3.5 64.5t3.5 64.5t17 108t52 154.5t97.5 150zM766 857h42q59 -69 97.5 -150t52 -154.5t17 -108t3.5 -64.5t-3.5 -64.5t-17 -108t-52 -154.5t-97.5 -150h-42q81 99 124.5 222.5t43.5 254.5q0 130 -43.5 253.5t-124.5 223.5z" />
    <glyph glyph-name="uni24A1" unicode="&#x24a1;" 
d="M438 544v35q0 92 55 120.5t171 23.5v-75q-68 4 -103.5 -8.5t-35.5 -57.5v-38h139v-79h-139v-441h-87v441h-103v79h103zM192 857h42q-81 -100 -124.5 -223.5t-43.5 -253.5q0 -131 43.5 -254.5t124.5 -222.5h-42q-59 69 -97.5 150t-52 154.5t-17 108t-3.5 64.5t3.5 64.5
t17 108t52 154.5t97.5 150zM766 857h42q59 -69 97.5 -150t52 -154.5t17 -108t3.5 -64.5t-3.5 -64.5t-17 -108t-52 -154.5t-97.5 -150h-42q81 99 124.5 222.5t43.5 254.5q0 130 -43.5 253.5t-124.5 223.5z" />
    <glyph glyph-name="uni24A2" unicode="&#x24a2;" 
d="M796 721v-70q-39 -2 -54.5 -7.5t-25.5 -24.5q18 -30 18 -67q0 -95 -54.5 -128t-170.5 -33q-126 0 -175 27q-34 -20 -34 -42q0 -34 53 -38l274 -18q49 -3 80.5 -16.5t44 -35t16.5 -38t4 -38.5q0 -81 -58.5 -112.5t-215.5 -31.5q-147 0 -214.5 27t-67.5 103q0 32 12.5 55.5
t22.5 30.5t27 16q-29 9 -42.5 31.5t-13.5 48.5q0 39 20 62.5t49 26.5q-32 35 -32 103q0 79 54.5 115t186.5 36t172 -34q9 15 17.5 23.5t36.5 18.5t70 10zM497 630q-86 0 -121.5 -17t-35.5 -71q0 -47 37.5 -62t120.5 -15q85 0 119.5 16t34.5 68q0 48 -33.5 64.5t-121.5 16.5z
M567 255l-198 12q-74 -13 -74 -72q0 -28 13.5 -42.5t60 -22.5t139.5 -8q105 0 143.5 16t38.5 53q0 30 -24.5 45t-98.5 19zM192 857h42q-81 -100 -124.5 -223.5t-43.5 -253.5q0 -131 43.5 -254.5t124.5 -222.5h-42q-59 69 -97.5 150t-52 154.5t-17 108t-3.5 64.5t3.5 64.5
t17 108t52 154.5t97.5 150zM766 857h42q59 -69 97.5 -150t52 -154.5t17 -108t3.5 -64.5t-3.5 -64.5t-17 -108t-52 -154.5t-97.5 -150h-42q81 99 124.5 222.5t43.5 254.5q0 130 -43.5 253.5t-124.5 223.5z" />
    <glyph glyph-name="uni24A3" unicode="&#x24a3;" 
d="M192 857h42q-81 -100 -124.5 -223.5t-43.5 -253.5q0 -131 43.5 -254.5t124.5 -222.5h-42q-59 69 -97.5 150t-52 154.5t-17 108t-3.5 64.5t3.5 64.5t17 108t52 154.5t97.5 150zM766 857h42q59 -69 97.5 -150t52 -154.5t17 -108t3.5 -64.5t-3.5 -64.5t-17 -108t-52 -154.5
t-97.5 -150h-42q81 99 124.5 222.5t43.5 254.5q0 130 -43.5 253.5t-124.5 223.5zM262 736h85v-238q51 72 182 72q201 0 201 -178v-349h-85v332q0 17 -1 27.5t-8.5 30t-21.5 31t-43 20.5t-70 9q-88 0 -121 -39t-33 -111v-300h-85v693z" />
    <glyph glyph-name="uni24A4" unicode="&#x24a4;" 
d="M192 857h42q-81 -100 -124.5 -223.5t-43.5 -253.5q0 -131 43.5 -254.5t124.5 -222.5h-42q-59 69 -97.5 150t-52 154.5t-17 108t-3.5 64.5t3.5 64.5t17 108t52 154.5t97.5 150zM766 857h42q59 -69 97.5 -150t52 -154.5t17 -108t3.5 -64.5t-3.5 -64.5t-17 -108t-52 -154.5
t-97.5 -150h-42q81 99 124.5 222.5t43.5 254.5q0 130 -43.5 253.5t-124.5 223.5zM458 552h84v-518h-84v518zM450 727h100v-100h-100v100z" />
    <glyph glyph-name="uni24A5" unicode="&#x24a5;" 
d="M192 857h42q-81 -100 -124.5 -223.5t-43.5 -253.5q0 -131 43.5 -254.5t124.5 -222.5h-42q-59 69 -97.5 150t-52 154.5t-17 108t-3.5 64.5t3.5 64.5t17 108t52 154.5t97.5 150zM766 857h42q59 -69 97.5 -150t52 -154.5t17 -108t3.5 -64.5t-3.5 -64.5t-17 -108t-52 -154.5
t-97.5 -150h-42q81 99 124.5 222.5t43.5 254.5q0 130 -43.5 253.5t-124.5 223.5zM474 762h101v-100h-101v100zM482 583h85v-484q0 -33 -7 -57t-22 -38t-29.5 -22.5t-40 -11.5t-40.5 -3.5t-44 -0.5v78q29 0 41.5 0.5t28.5 6.5t22 21t6 41v470z" />
    <glyph glyph-name="uni24A6" unicode="&#x24a6;" 
d="M392 321l230 232h110l-250 -241l278 -278h-111l-257 269v-269h-85v692h85v-405zM192 857h42q-81 -100 -124.5 -223.5t-43.5 -253.5q0 -131 43.5 -254.5t124.5 -222.5h-42q-59 69 -97.5 150t-52 154.5t-17 108t-3.5 64.5t3.5 64.5t17 108t52 154.5t97.5 150zM766 857h42
q59 -69 97.5 -150t52 -154.5t17 -108t3.5 -64.5t-3.5 -64.5t-17 -108t-52 -154.5t-97.5 -150h-42q81 99 124.5 222.5t43.5 254.5q0 130 -43.5 253.5t-124.5 223.5z" />
    <glyph glyph-name="uni24A7" unicode="&#x24a7;" 
d="M458 726h84v-692h-84v692zM192 857h42q-81 -100 -124.5 -223.5t-43.5 -253.5q0 -131 43.5 -254.5t124.5 -222.5h-42q-59 69 -97.5 150t-52 154.5t-17 108t-3.5 64.5t3.5 64.5t17 108t52 154.5t97.5 150zM766 857h42q59 -69 97.5 -150t52 -154.5t17 -108t3.5 -64.5
t-3.5 -64.5t-17 -108t-52 -154.5t-97.5 -150h-42q81 99 124.5 222.5t43.5 254.5q0 130 -43.5 253.5t-124.5 223.5z" />
    <glyph glyph-name="uni24A8" unicode="&#x24a8;" 
d="M164 636h81l3 -57q58 64 144 64q9 0 20.5 -1.5t34.5 -8t44.5 -24.5t35.5 -45q24 44 69.5 61.5t85.5 17.5q63 0 108.5 -36.5t45.5 -124.5v-365h-84v343q0 107 -88 107q-34 0 -58.5 -10.5t-36.5 -23.5t-18 -32.5t-7 -29t-1 -22.5v-332h-84v333q0 117 -89 117q-9 0 -18 -0.5
t-30 -6.5t-35.5 -17t-26.5 -34t-12 -54v-338h-84v519zM192 857h42q-81 -100 -124.5 -223.5t-43.5 -253.5q0 -131 43.5 -254.5t124.5 -222.5h-42q-59 69 -97.5 150t-52 154.5t-17 108t-3.5 64.5t3.5 64.5t17 108t52 154.5t97.5 150zM766 857h42q59 -69 97.5 -150t52 -154.5
t17 -108t3.5 -64.5t-3.5 -64.5t-17 -108t-52 -154.5t-97.5 -150h-42q81 99 124.5 222.5t43.5 254.5q0 130 -43.5 253.5t-124.5 223.5z" />
    <glyph glyph-name="uni24A9" unicode="&#x24a9;" 
d="M289 636h81l4 -65q49 72 175 72q198 0 198 -174v-352h-85v333q0 18 -1 29t-8 30t-20.5 30t-41.5 19.5t-68 8.5t-69.5 -10.5t-44.5 -25t-23 -37.5t-10 -39.5t-2 -38.5v-299h-85v519zM192 857h42q-81 -100 -124.5 -223.5t-43.5 -253.5q0 -131 43.5 -254.5t124.5 -222.5h-42
q-59 69 -97.5 150t-52 154.5t-17 108t-3.5 64.5t3.5 64.5t17 108t52 154.5t97.5 150zM766 857h42q59 -69 97.5 -150t52 -154.5t17 -108t3.5 -64.5t-3.5 -64.5t-17 -108t-52 -154.5t-97.5 -150h-42q81 99 124.5 222.5t43.5 254.5q0 130 -43.5 253.5t-124.5 223.5z" />
    <glyph glyph-name="uni24AA" unicode="&#x24aa;" 
d="M251 380q0 75 9 121t35.5 81.5t76 50t128.5 14.5q57 0 98.5 -7.5t68.5 -25t43.5 -38.5t25 -56t11 -68t2.5 -84q0 -145 -53 -200t-196 -55q-81 0 -131 15.5t-75.5 52t-34 81t-8.5 118.5zM664 380q0 57 -4.5 87.5t-21.5 56t-49.5 34.5t-88.5 9q-47 0 -77.5 -8t-48 -20.5
t-26 -40.5t-10.5 -54t-2 -76q0 -103 31.5 -139t132.5 -36q57 0 90 9.5t49 35.5t20.5 56t4.5 86zM192 857h42q-81 -100 -124.5 -223.5t-43.5 -253.5q0 -131 43.5 -254.5t124.5 -222.5h-42q-59 69 -97.5 150t-52 154.5t-17 108t-3.5 64.5t3.5 64.5t17 108t52 154.5t97.5 150z
M766 857h42q59 -69 97.5 -150t52 -154.5t17 -108t3.5 -64.5t-3.5 -64.5t-17 -108t-52 -154.5t-97.5 -150h-42q81 99 124.5 222.5t43.5 254.5q0 130 -43.5 253.5t-124.5 223.5z" />
    <glyph glyph-name="uni24AB" unicode="&#x24ab;" 
d="M285 698h81l2 -60q11 14 19.5 22.5t28 21t51.5 18.5t76 6q123 0 171.5 -61.5t48.5 -200.5q0 -135 -52.5 -193t-164.5 -58q-58 0 -98 13t-52.5 24.5t-26.5 30.5v-200h-84v637zM523 631q-87 0 -120 -44.5t-33 -137.5q0 -57 11.5 -94.5t34.5 -55.5t48 -24.5t61 -6.5
q91 0 121.5 42.5t30.5 134.5q0 105 -32.5 145.5t-121.5 40.5zM192 857h42q-81 -100 -124.5 -223.5t-43.5 -253.5q0 -131 43.5 -254.5t124.5 -222.5h-42q-59 69 -97.5 150t-52 154.5t-17 108t-3.5 64.5t3.5 64.5t17 108t52 154.5t97.5 150zM766 857h42q59 -69 97.5 -150
t52 -154.5t17 -108t3.5 -64.5t-3.5 -64.5t-17 -108t-52 -154.5t-97.5 -150h-42q81 99 124.5 222.5t43.5 254.5q0 130 -43.5 253.5t-124.5 223.5z" />
    <glyph glyph-name="uni24AC" unicode="&#x24ac;" 
d="M635 698h81v-637h-84v200q-12 -17 -24.5 -28.5t-49.5 -24.5t-89 -13q-54 0 -90.5 8t-71.5 32t-52.5 76t-17.5 133q0 141 49 200.5t173 59.5q79 0 114.5 -17t59.5 -49zM478 628q-88 0 -121.5 -39.5t-33.5 -143.5q0 -97 33.5 -136t121.5 -39q79 0 116 39.5t37 139.5
q0 96 -35.5 137.5t-117.5 41.5zM192 857h42q-81 -100 -124.5 -223.5t-43.5 -253.5q0 -131 43.5 -254.5t124.5 -222.5h-42q-59 69 -97.5 150t-52 154.5t-17 108t-3.5 64.5t3.5 64.5t17 108t52 154.5t97.5 150zM766 857h42q59 -69 97.5 -150t52 -154.5t17 -108t3.5 -64.5
t-3.5 -64.5t-17 -108t-52 -154.5t-97.5 -150h-42q81 99 124.5 222.5t43.5 254.5q0 130 -43.5 253.5t-124.5 223.5z" />
    <glyph glyph-name="uni24AD" unicode="&#x24ad;" 
d="M409 635h80l3 -56q31 41 76.5 53t118.5 10v-80q-76 2 -99 -4q-44 -12 -69 -42t-25 -75v-325h-85v519zM192 857h42q-81 -100 -124.5 -223.5t-43.5 -253.5q0 -131 43.5 -254.5t124.5 -222.5h-42q-59 69 -97.5 150t-52 154.5t-17 108t-3.5 64.5t3.5 64.5t17 108t52 154.5
t97.5 150zM766 857h42q59 -69 97.5 -150t52 -154.5t17 -108t3.5 -64.5t-3.5 -64.5t-17 -108t-52 -154.5t-97.5 -150h-42q81 99 124.5 222.5t43.5 254.5q0 130 -43.5 253.5t-124.5 223.5z" />
    <glyph glyph-name="uni24AE" unicode="&#x24ae;" 
d="M723 489h-85q0 16 -2.5 26t-13.5 25.5t-40 23.5t-75 8q-88 0 -122.5 -16t-34.5 -64q0 -32 17.5 -45t62.5 -18l178 -19q62 -7 97 -38t35 -101q0 -43 -16 -74t-38 -47t-57.5 -24.5t-62 -10.5t-63.5 -2q-77 0 -126.5 12t-74 37.5t-33 54.5t-9.5 74h85q0 -28 3 -41.5
t17.5 -30.5t51.5 -24t98 -7q82 0 111.5 21t29.5 61q0 39 -19.5 52t-66.5 18l-176 19q-123 14 -123 129q0 38 11 67t32.5 45.5t41.5 26.5t50.5 14t46 5t40.5 1q61 0 105 -9.5t67.5 -23t37 -36.5t17 -42t3.5 -47zM192 857h42q-81 -100 -124.5 -223.5t-43.5 -253.5
q0 -131 43.5 -254.5t124.5 -222.5h-42q-59 69 -97.5 150t-52 154.5t-17 108t-3.5 64.5t3.5 64.5t17 108t52 154.5t97.5 150zM766 857h42q59 -69 97.5 -150t52 -154.5t17 -108t3.5 -64.5t-3.5 -64.5t-17 -108t-52 -154.5t-97.5 -150h-42q81 99 124.5 222.5t43.5 254.5
q0 130 -43.5 253.5t-124.5 223.5z" />
    <glyph glyph-name="uni24AF" unicode="&#x24af;" 
d="M421 580v124h85v-124h145v-78h-145v-284q0 -26 2 -38t11.5 -25t32 -17.5t61.5 -4.5q33 0 56 3v-80q-42 -3 -62 -3q-111 0 -148.5 32t-37.5 105v312h-120v78h120zM192 857h42q-81 -100 -124.5 -223.5t-43.5 -253.5q0 -131 43.5 -254.5t124.5 -222.5h-42q-59 69 -97.5 150
t-52 154.5t-17 108t-3.5 64.5t3.5 64.5t17 108t52 154.5t97.5 150zM766 857h42q59 -69 97.5 -150t52 -154.5t17 -108t3.5 -64.5t-3.5 -64.5t-17 -108t-52 -154.5t-97.5 -150h-42q81 99 124.5 222.5t43.5 254.5q0 130 -43.5 253.5t-124.5 223.5z" />
    <glyph glyph-name="uni24B0" unicode="&#x24b0;" 
d="M271 640h85v-332q0 -18 1 -29t8 -30.5t20.5 -30t41.5 -19.5t67 -9q78 0 114 36t36 111v303h85v-520h-81l-4 65q-49 -72 -173 -72q-200 0 -200 176v351zM192 857h42q-81 -100 -124.5 -223.5t-43.5 -253.5q0 -131 43.5 -254.5t124.5 -222.5h-42q-59 69 -97.5 150t-52 154.5
t-17 108t-3.5 64.5t3.5 64.5t17 108t52 154.5t97.5 150zM766 857h42q59 -69 97.5 -150t52 -154.5t17 -108t3.5 -64.5t-3.5 -64.5t-17 -108t-52 -154.5t-97.5 -150h-42q81 99 124.5 222.5t43.5 254.5q0 130 -43.5 253.5t-124.5 223.5z" />
    <glyph glyph-name="uni24B1" unicode="&#x24b1;" 
d="M744 630l-190 -519h-108l-190 519h94l150 -444l151 444h93zM192 857h42q-81 -100 -124.5 -223.5t-43.5 -253.5q0 -131 43.5 -254.5t124.5 -222.5h-42q-59 69 -97.5 150t-52 154.5t-17 108t-3.5 64.5t3.5 64.5t17 108t52 154.5t97.5 150zM766 857h42q59 -69 97.5 -150
t52 -154.5t17 -108t3.5 -64.5t-3.5 -64.5t-17 -108t-52 -154.5t-97.5 -150h-42q81 99 124.5 222.5t43.5 254.5q0 130 -43.5 253.5t-124.5 223.5z" />
    <glyph glyph-name="uni24B2" unicode="&#x24b2;" 
d="M500 553l-102 -447h-123l-139 519h88l114 -452l103 452h118l103 -452l114 452h88l-139 -519h-123zM192 857h42q-81 -100 -124.5 -223.5t-43.5 -253.5q0 -131 43.5 -254.5t124.5 -222.5h-42q-59 69 -97.5 150t-52 154.5t-17 108t-3.5 64.5t3.5 64.5t17 108t52 154.5
t97.5 150zM766 857h42q59 -69 97.5 -150t52 -154.5t17 -108t3.5 -64.5t-3.5 -64.5t-17 -108t-52 -154.5t-97.5 -150h-42q81 99 124.5 222.5t43.5 254.5q0 130 -43.5 253.5t-124.5 223.5z" />
    <glyph glyph-name="uni24B3" unicode="&#x24b3;" 
d="M638 121l-138 233l-138 -233h-103l177 274l-161 244h102l123 -206l123 206h102l-161 -244l178 -274h-104zM192 857h42q-81 -100 -124.5 -223.5t-43.5 -253.5q0 -131 43.5 -254.5t124.5 -222.5h-42q-59 69 -97.5 150t-52 154.5t-17 108t-3.5 64.5t3.5 64.5t17 108
t52 154.5t97.5 150zM766 857h42q59 -69 97.5 -150t52 -154.5t17 -108t3.5 -64.5t-3.5 -64.5t-17 -108t-52 -154.5t-97.5 -150h-42q81 99 124.5 222.5t43.5 254.5q0 130 -43.5 253.5t-124.5 223.5z" />
    <glyph glyph-name="uni24B4" unicode="&#x24b4;" 
d="M259 685h94l155 -408l139 408h94l-200 -521q-27 -69 -64 -92.5t-100 -23.5q-42 0 -75 6v76q52 -6 76 -6q58 0 82 53l7 15zM192 857h42q-81 -100 -124.5 -223.5t-43.5 -253.5q0 -131 43.5 -254.5t124.5 -222.5h-42q-59 69 -97.5 150t-52 154.5t-17 108t-3.5 64.5t3.5 64.5
t17 108t52 154.5t97.5 150zM766 857h42q59 -69 97.5 -150t52 -154.5t17 -108t3.5 -64.5t-3.5 -64.5t-17 -108t-52 -154.5t-97.5 -150h-42q81 99 124.5 222.5t43.5 254.5q0 130 -43.5 253.5t-124.5 223.5z" />
    <glyph glyph-name="uni24B5" unicode="&#x24b5;" 
d="M286 639h436v-73l-328 -371h329v-74h-446v73l328 371h-319v74zM192 857h42q-81 -100 -124.5 -223.5t-43.5 -253.5q0 -131 43.5 -254.5t124.5 -222.5h-42q-59 69 -97.5 150t-52 154.5t-17 108t-3.5 64.5t3.5 64.5t17 108t52 154.5t97.5 150zM766 857h42q59 -69 97.5 -150
t52 -154.5t17 -108t3.5 -64.5t-3.5 -64.5t-17 -108t-52 -154.5t-97.5 -150h-42q81 99 124.5 222.5t43.5 254.5q0 130 -43.5 253.5t-124.5 223.5z" />
    <glyph glyph-name="uni24B6" unicode="&#x24b6;" 
d="M552 701l243 -585h-92l-60 146h-286l-60 -146h-92l243 585h104zM617 335l-117 285l-117 -285h234zM500 854q128 0 237 -62.5t173 -172t64 -239.5q0 -196 -139 -335t-335 -139t-335 139t-139 335q0 130 64 239.5t173 172t237 62.5zM500 819q-181 0 -310 -128t-129 -311
q0 -119 59 -220t160 -160t220 -59q182 0 310.5 128.5t128.5 310.5q0 183 -129 311t-310 128z" />
    <glyph glyph-name="uni24B7" unicode="&#x24b7;" 
d="M279 671h313q15 0 27.5 -1t40 -9t46.5 -22.5t34.5 -45.5t15.5 -74q0 -100 -77 -128q98 -28 98 -147q0 -47 -16 -80.5t-43 -49t-53.5 -22t-55.5 -6.5h-330v585zM567 599h-208v-177h204q63 0 87 22.5t24 72.5q0 46 -25.5 64t-81.5 18zM575 350h-216v-192h230q22 0 36 2
t32 10.5t27.5 29t9.5 53.5q0 28 -8 47t-18.5 28.5t-29.5 14.5t-31 6t-32 1zM500 854q128 0 237 -62.5t173 -172t64 -239.5q0 -196 -139 -335t-335 -139t-335 139t-139 335q0 130 64 239.5t173 172t237 62.5zM500 819q-181 0 -310 -128t-129 -311q0 -119 59 -220t160 -160
t220 -59q182 0 310.5 128.5t128.5 310.5q0 183 -129 311t-310 128z" />
    <glyph glyph-name="uni24B8" unicode="&#x24b8;" 
d="M500 854q128 0 237 -62.5t173 -172t64 -239.5q0 -196 -139 -335t-335 -139t-335 139t-139 335q0 130 64 239.5t173 172t237 62.5zM500 819q-181 0 -310 -128t-129 -311q0 -119 59 -220t160 -160t220 -59q182 0 310.5 128.5t128.5 310.5q0 183 -129 311t-310 128zM768 474
h-81q-2 79 -45.5 104.5t-130.5 25.5q-119 0 -155 -46t-36 -192q0 -59 6 -94.5t25 -65t56.5 -42t98.5 -12.5q105 0 143 28.5t39 115.5h85q-1 -57 -16.5 -98t-38.5 -63t-58.5 -35t-66.5 -16.5t-72 -3.5q-77 0 -124.5 10.5t-86 41t-55 89t-16.5 152.5q0 81 10 132.5t38 93
t82 60t138 18.5q135 0 196.5 -45.5t64.5 -157.5z" />
    <glyph glyph-name="uni24B9" unicode="&#x24b9;" 
d="M500 854q128 0 237 -62.5t173 -172t64 -239.5q0 -196 -139 -335t-335 -139t-335 139t-139 335q0 130 64 239.5t173 172t237 62.5zM500 819q-181 0 -310 -128t-129 -311q0 -119 59 -220t160 -160t220 -59q182 0 310.5 128.5t128.5 310.5q0 183 -129 311t-310 128zM257 671
h282q51 0 85 -4.5t71 -21.5t58.5 -47.5t35.5 -85t14 -132.5q0 -74 -9.5 -123.5t-34.5 -90.5t-73.5 -60.5t-123.5 -19.5h-305v585zM539 596h-200v-436h212q57 0 90.5 11t50.5 41t22 67.5t5 105.5q0 129 -37.5 170t-142.5 41z" />
    <glyph glyph-name="uni24BA" unicode="&#x24ba;" 
d="M500 854q128 0 237 -62.5t173 -172t64 -239.5q0 -196 -139 -335t-335 -139t-335 139t-139 335q0 130 64 239.5t173 172t237 62.5zM500 819q-181 0 -310 -128t-129 -311q0 -119 59 -220t160 -160t220 -59q182 0 310.5 128.5t128.5 310.5q0 183 -129 311t-310 128zM283 671
h451v-75h-369v-174h349v-72h-349v-189h374v-75h-456v585z" />
    <glyph glyph-name="uni24BB" unicode="&#x24bb;" 
d="M500 854q128 0 237 -62.5t173 -172t64 -239.5q0 -196 -139 -335t-335 -139t-335 139t-139 335q0 130 64 239.5t173 172t237 62.5zM500 819q-181 0 -310 -128t-129 -311q0 -119 59 -220t160 -160t220 -59q182 0 310.5 128.5t128.5 310.5q0 183 -129 311t-310 128zM320 649
h422v-75h-341v-180h324v-74h-324v-256h-81v585z" />
    <glyph glyph-name="uni24BC" unicode="&#x24bc;" 
d="M500 854q128 0 237 -62.5t173 -172t64 -239.5q0 -196 -139 -335t-335 -139t-335 139t-139 335q0 130 64 239.5t173 172t237 62.5zM500 819q-181 0 -310 -128t-129 -311q0 -119 59 -220t160 -160t220 -59q182 0 310.5 128.5t128.5 310.5q0 183 -129 311t-310 128zM766 481
h-82q-1 67 -43 95t-141 28q-81 0 -120.5 -18.5t-56.5 -67.5t-17 -148q0 -49 3 -79.5t13.5 -59t31 -44t54 -24.5t82.5 -9q47 0 81 4t55.5 15t34 22.5t19 34t8 41t1.5 51.5h-203v70h283q0 -99 -1.5 -129t-9.5 -54q-41 -129 -248 -129q-83 0 -134 12t-87.5 44.5t-51 89
t-14.5 147.5q0 82 10.5 134.5t39.5 93t84 58.5t141 18q39 0 69.5 -2.5t70 -14t65.5 -31.5t44.5 -58t18.5 -90z" />
    <glyph glyph-name="uni24BD" unicode="&#x24bd;" 
d="M683 86v264h-366v-264h-81v585h81v-246h366v246h81v-585h-81zM500 854q128 0 237 -62.5t173 -172t64 -239.5q0 -196 -139 -335t-335 -139t-335 139t-139 335q0 130 64 239.5t173 172t237 62.5zM500 819q-181 0 -310 -128t-129 -311q0 -119 59 -220t160 -160t220 -59
q182 0 310.5 128.5t128.5 310.5q0 183 -129 311t-310 128z" />
    <glyph glyph-name="uni24BE" unicode="&#x24be;" 
d="M500 854q128 0 237 -62.5t173 -172t64 -239.5q0 -196 -139 -335t-335 -139t-335 139t-139 335q0 130 64 239.5t173 172t237 62.5zM500 819q-181 0 -310 -128t-129 -311q0 -119 59 -220t160 -160t220 -59q182 0 310.5 128.5t128.5 310.5q0 183 -129 311t-310 128zM459 671
h82v-585h-82v585z" />
    <glyph glyph-name="uni24BF" unicode="&#x24bf;" 
d="M500 854q128 0 237 -62.5t173 -172t64 -239.5q0 -196 -139 -335t-335 -139t-335 139t-139 335q0 130 64 239.5t173 172t237 62.5zM500 819q-181 0 -310 -128t-129 -311q0 -119 59 -220t160 -160t220 -59q182 0 310.5 128.5t128.5 310.5q0 183 -129 311t-310 128zM595 682
h81v-408q0 -57 -16 -95t-47.5 -56.5t-66 -25.5t-83.5 -7q-66 0 -110 12.5t-67 28t-34.5 51.5t-13 60.5t-1.5 77.5h83q1 -72 3.5 -90.5t14.5 -33.5q28 -32 121 -32q83 0 109.5 24.5t26.5 98.5v395z" />
    <glyph glyph-name="uni24C0" unicode="&#x24c0;" 
d="M500 854q128 0 237 -62.5t173 -172t64 -239.5q0 -196 -139 -335t-335 -139t-335 139t-139 335q0 130 64 239.5t173 172t237 62.5zM500 819q-181 0 -310 -128t-129 -311q0 -119 59 -220t160 -160t220 -59q182 0 310.5 128.5t128.5 310.5q0 183 -129 311t-310 128zM394 402
l276 270h110l-297 -285l317 -299h-115l-291 284v-284h-82v584h82v-270z" />
    <glyph glyph-name="uni24C1" unicode="&#x24c1;" 
d="M500 854q128 0 237 -62.5t173 -172t64 -239.5q0 -196 -139 -335t-335 -139t-335 139t-139 335q0 130 64 239.5t173 172t237 62.5zM500 819q-181 0 -310 -128t-129 -311q0 -119 59 -220t160 -160t220 -59q182 0 310.5 128.5t128.5 310.5q0 183 -129 311t-310 128zM351 704
h81v-511h308v-73h-389v584z" />
    <glyph glyph-name="uni24C2" unicode="&#x24c2;" 
d="M548 88h-96l-164 483q0 -8 1 -70.5t1 -75.5v-337h-79v584h115l174 -510l174 510h115v-584h-79v337q0 13 1 75t1 71zM500 854q128 0 237 -62.5t173 -172t64 -239.5q0 -196 -139 -335t-335 -139t-335 139t-139 335q0 130 64 239.5t173 172t237 62.5zM500 819
q-181 0 -310 -128t-129 -311q0 -119 59 -220t160 -160t220 -59q182 0 310.5 128.5t128.5 310.5q0 183 -129 311t-310 128z" />
    <glyph glyph-name="uni24C3" unicode="&#x24c3;" 
d="M500 854q128 0 237 -62.5t173 -172t64 -239.5q0 -196 -139 -335t-335 -139t-335 139t-139 335q0 130 64 239.5t173 172t237 62.5zM500 819q-181 0 -310 -128t-129 -311q0 -119 59 -220t160 -160t220 -59q182 0 310.5 128.5t128.5 310.5q0 183 -129 311t-310 128zM257 672
h113l292 -489v489h81v-584h-113l-292 489v-489h-81v584z" />
    <glyph glyph-name="uni24C4" unicode="&#x24c4;" 
d="M500 854q128 0 237 -62.5t173 -172t64 -239.5q0 -196 -139 -335t-335 -139t-335 139t-139 335q0 130 64 239.5t173 172t237 62.5zM500 819q-181 0 -310 -128t-129 -311q0 -119 59 -220t160 -160t220 -59q182 0 310.5 128.5t128.5 310.5q0 183 -129 311t-310 128zM246 380
q0 176 54.5 237.5t208.5 61.5q64 0 109 -14t71.5 -37.5t41 -63.5t19 -81.5t4.5 -102.5q0 -176 -54.5 -237.5t-208.5 -61.5q-64 0 -109.5 14t-71.5 37.5t-40.5 63.5t-19 81.5t-4.5 102.5zM672 380q0 71 -5 109t-24 67t-54 39t-97 10q-47 0 -78 -10.5t-48 -26.5t-25.5 -48.5
t-10.5 -60.5t-2 -79q0 -71 5 -109t24 -67t54 -39t97 -10q47 0 78 10.5t48 26.5t25.5 48.5t10.5 60.5t2 79z" />
    <glyph glyph-name="uni24C5" unicode="&#x24c5;" 
d="M500 854q128 0 237 -62.5t173 -172t64 -239.5q0 -196 -139 -335t-335 -139t-335 139t-139 335q0 130 64 239.5t173 172t237 62.5zM500 819q-181 0 -310 -128t-129 -311q0 -119 59 -220t160 -160t220 -59q182 0 310.5 128.5t128.5 310.5q0 183 -129 311t-310 128zM304 648
h302q92 0 134.5 -42.5t42.5 -134.5q0 -98 -45.5 -139t-136.5 -41h-215v-227h-82v584zM597 575h-211v-211h211q52 0 78 20.5t26 84.5t-25.5 85t-78.5 21z" />
    <glyph glyph-name="uni24C6" unicode="&#x24c6;" 
d="M500 854q128 0 237 -62.5t173 -172t64 -239.5q0 -196 -139 -335t-335 -139t-335 139t-139 335q0 130 64 239.5t173 172t237 62.5zM500 819q-181 0 -310 -128t-129 -311q0 -119 59 -220t160 -160t220 -59q182 0 310.5 128.5t128.5 310.5q0 183 -129 311t-310 128zM711 158
l58 -50l-47 -55l-65 56q-53 -28 -159 -28q-78 0 -127 16t-77 54t-38 91t-10 138q0 61 4.5 102.5t19 81.5t41 63.5t71.5 37.5t109 14q156 0 209.5 -62t53.5 -240q0 -154 -43 -219zM527 317l122 -105q23 41 23 162q0 59 -3 92.5t-12.5 64t-29.5 44.5t-52.5 22t-82.5 8
q-47 0 -78 -10.5t-48 -26.5t-25.5 -48.5t-10.5 -60.5t-2 -79q0 -53 2.5 -83t11.5 -61.5t27 -46.5t49 -24.5t78 -9.5q55 0 95 11l-111 96z" />
    <glyph glyph-name="uni24C7" unicode="&#x24c7;" 
d="M500 854q128 0 237 -62.5t173 -172t64 -239.5q0 -196 -139 -335t-335 -139t-335 139t-139 335q0 130 64 239.5t173 172t237 62.5zM500 819q-181 0 -310 -128t-129 -311q0 -119 59 -220t160 -160t220 -59q182 0 310.5 128.5t128.5 310.5q0 183 -129 311t-310 128zM280 672
h292q164 0 164 -153q0 -119 -95 -144q47 -10 67 -41t20 -89v-56q0 -60 12 -102h-85q-7 33 -7 93v59q0 35 -8 57t-24.5 30.5t-30 11t-35.5 2.5h-188v-252h-82v584zM558 599h-196v-186h192q22 0 35.5 2.5t30.5 11t25.5 30.5t8.5 56q0 49 -22.5 67.5t-73.5 18.5z" />
    <glyph glyph-name="uni24C8" unicode="&#x24c8;" 
d="M500 854q128 0 237 -62.5t173 -172t64 -239.5q0 -196 -139 -335t-335 -139t-335 139t-139 335q0 130 64 239.5t173 172t237 62.5zM500 819q-181 0 -310 -128t-129 -311q0 -119 59 -220t160 -160t220 -59q182 0 310.5 128.5t128.5 310.5q0 183 -129 311t-310 128zM712 498
h-82q0 65 -31 86.5t-115 21.5q-30 0 -48.5 -2t-41 -10.5t-34 -29t-11.5 -53.5q0 -40 20.5 -58t59.5 -22l157 -17q28 -3 49.5 -9t47.5 -22t40.5 -49.5t14.5 -81.5q0 -54 -19 -90t-55.5 -52.5t-73.5 -22.5t-88 -6q-134 0 -186 45.5t-54 149.5h83q0 -33 5 -53.5t21.5 -37.5
t49 -24t84.5 -7q85 0 118 21.5t33 73.5q0 50 -22 70t-66 25l-171 18q-41 4 -68.5 21.5t-39.5 43t-16 46t-4 42.5q0 47 17.5 80t39 49t56.5 24.5t53.5 9.5t46.5 1q62 0 106 -10.5t67.5 -25.5t36.5 -41.5t16 -48t4 -55.5z" />
    <glyph glyph-name="uni24C9" unicode="&#x24c9;" 
d="M740 640v-73h-199v-511h-82v511h-199v73h480zM500 854q128 0 237 -62.5t173 -172t64 -239.5q0 -196 -139 -335t-335 -139t-335 139t-139 335q0 130 64 239.5t173 172t237 62.5zM500 819q-181 0 -310 -128t-129 -311q0 -119 59 -220t160 -160t220 -59q182 0 310.5 128.5
t128.5 310.5q0 183 -129 311t-310 128z" />
    <glyph glyph-name="uni24CA" unicode="&#x24ca;" 
d="M743 672v-389q0 -42 -10 -75.5t-35.5 -63.5t-75.5 -46.5t-123 -16.5q-126 0 -184 51t-58 151v389h82v-381q0 -32 5.5 -53.5t21.5 -42t49.5 -30.5t85.5 -10q96 0 128 34.5t32 101.5v381h82zM500 854q128 0 237 -62.5t173 -172t64 -239.5q0 -196 -139 -335t-335 -139
t-335 139t-139 335q0 130 64 239.5t173 172t237 62.5zM500 819q-181 0 -310 -128t-129 -311q0 -119 59 -220t160 -160t220 -59q182 0 310.5 128.5t128.5 310.5q0 183 -129 311t-310 128z" />
    <glyph glyph-name="uni24CB" unicode="&#x24cb;" 
d="M500 854q128 0 237 -62.5t173 -172t64 -239.5q0 -196 -139 -335t-335 -139t-335 139t-139 335q0 130 64 239.5t173 172t237 62.5zM500 819q-181 0 -310 -128t-129 -311q0 -119 59 -220t160 -160t220 -59q182 0 310.5 128.5t128.5 310.5q0 183 -129 311t-310 128zM238 640
h91l171 -485l171 485h91l-212 -584h-100z" />
    <glyph glyph-name="uni24CC" unicode="&#x24cc;" 
d="M500 555l-109 -499h-104l-139 584h85l106 -489l107 489h108l107 -489l106 489h85l-139 -584h-104zM500 854q128 0 237 -62.5t173 -172t64 -239.5q0 -196 -139 -335t-335 -139t-335 139t-139 335q0 130 64 239.5t173 172t237 62.5zM500 819q-181 0 -310 -128t-129 -311
q0 -119 59 -220t160 -160t220 -59q182 0 310.5 128.5t128.5 310.5q0 183 -129 311t-310 128z" />
    <glyph glyph-name="uni24CD" unicode="&#x24cd;" 
d="M500 346l-166 -258h-100l207 303l-191 281h98l152 -237l152 237h98l-191 -281l207 -303h-100zM500 854q128 0 237 -62.5t173 -172t64 -239.5q0 -196 -139 -335t-335 -139t-335 139t-139 335q0 130 64 239.5t173 172t237 62.5zM500 819q-181 0 -310 -128t-129 -311
q0 -119 59 -220t160 -160t220 -59q182 0 310.5 128.5t128.5 310.5q0 183 -129 311t-310 128z" />
    <glyph glyph-name="uni24CE" unicode="&#x24ce;" 
d="M541 56h-82v237l-226 347h98l169 -271l169 271h98l-226 -347v-237zM500 854q128 0 237 -62.5t173 -172t64 -239.5q0 -196 -139 -335t-335 -139t-335 139t-139 335q0 130 64 239.5t173 172t237 62.5zM500 819q-181 0 -310 -128t-129 -311q0 -119 59 -220t160 -160t220 -59
q182 0 310.5 128.5t128.5 310.5q0 183 -129 311t-310 128z" />
    <glyph glyph-name="uni24CF" unicode="&#x24cf;" 
d="M500 854q128 0 237 -62.5t173 -172t64 -239.5q0 -196 -139 -335t-335 -139t-335 139t-139 335q0 130 64 239.5t173 172t237 62.5zM500 819q-181 0 -310 -128t-129 -311q0 -119 59 -220t160 -160t220 -59q182 0 310.5 128.5t128.5 310.5q0 183 -129 311t-310 128zM271 672
h462v-73l-376 -438h388v-73h-493v73l376 438h-357v73z" />
    <glyph glyph-name="uni24D0" unicode="&#x24d0;" 
d="M500 854q128 0 237 -62.5t173 -172t64 -239.5q0 -196 -139 -335t-335 -139t-335 139t-139 335q0 130 64 239.5t173 172t237 62.5zM500 819q-181 0 -310 -128t-129 -311q0 -119 59 -220t160 -160t220 -59q182 0 310.5 128.5t128.5 310.5q0 183 -129 311t-310 128zM699 460
v-211q0 -49 13 -90h-74q-6 24 -8 47q-15 -19 -26 -28t-44.5 -17t-88.5 -8q-29 0 -46.5 1t-46 8t-45.5 20t-30 39.5t-13 63.5q0 72 39.5 103t95.5 33l158 5q24 1 34.5 10t10.5 35q0 32 -20.5 48.5t-87.5 16.5q-81 0 -105.5 -13t-31.5 -60h-76q0 62 33 96q23 23 74.5 34
t98.5 11q41 0 85 -12t60 -26q41 -35 41 -106zM627 324v52q-11 -14 -41 -14l-138 -4q-52 -1 -68 -21.5t-16 -52.5q0 -38 29.5 -51t85.5 -13q89 0 118.5 28.5t29.5 75.5z" />
    <glyph glyph-name="uni24D1" unicode="&#x24d1;" 
d="M500 854q128 0 237 -62.5t173 -172t64 -239.5q0 -196 -139 -335t-335 -139t-335 139t-139 335q0 130 64 239.5t173 172t237 62.5zM500 819q-181 0 -310 -128t-129 -311q0 -119 59 -220t160 -160t220 -59q182 0 310.5 128.5t128.5 310.5q0 183 -129 311t-310 128zM321 688
h75v-189q42 49 140 49q61 0 100.5 -17t58.5 -50.5t26 -69.5t7 -87q0 -133 -47 -179.5t-147 -46.5t-140 52l-4 -45h-69v583zM524 481q-74 0 -101 -36t-27 -123t27.5 -122t100.5 -35q36 0 60.5 8.5t37.5 21t20 36t8.5 43.5t1.5 55q0 80 -24.5 116t-103.5 36z" />
    <glyph glyph-name="uni24D2" unicode="&#x24d2;" 
d="M500 854q128 0 237 -62.5t173 -172t64 -239.5q0 -196 -139 -335t-335 -139t-335 139t-139 335q0 130 64 239.5t173 172t237 62.5zM500 819q-181 0 -310 -128t-129 -311q0 -119 59 -220t160 -160t220 -59q182 0 310.5 128.5t128.5 310.5q0 183 -129 311t-310 128zM631 325
h75q-3 -102 -53.5 -137t-150.5 -35q-121 0 -169.5 47.5t-48.5 178.5q0 126 46.5 175.5t167.5 49.5q44 0 75.5 -5.5t63 -21.5t48 -50.5t16.5 -87.5h-74q-2 54 -29.5 74t-99.5 20q-39 0 -61 -4.5t-41.5 -19.5t-27.5 -46t-8 -82q0 -92 27 -124.5t109 -32.5q74 0 103.5 19
t31.5 82z" />
    <glyph glyph-name="uni24D3" unicode="&#x24d3;" 
d="M500 854q128 0 237 -62.5t173 -172t64 -239.5q0 -196 -139 -335t-335 -139t-335 139t-139 335q0 130 64 239.5t173 172t237 62.5zM500 819q-181 0 -310 -128t-129 -311q0 -119 59 -220t160 -160t220 -59q182 0 310.5 128.5t128.5 310.5q0 183 -129 311t-310 128zM675 688
v-583h-68l-5 45q-40 -52 -143 -52q-104 0 -147 55t-43 172t44 170t147 53q100 0 141 -49v189h74zM472 481q-36 0 -60 -8.5t-37.5 -21t-20 -36.5t-8 -44t-1.5 -54q0 -81 24 -117t104 -36q78 0 103 39t25 121q0 85 -27.5 121t-101.5 36z" />
    <glyph glyph-name="uni24D4" unicode="&#x24d4;" 
d="M500 854q128 0 237 -62.5t173 -172t64 -239.5q0 -196 -139 -335t-335 -139t-335 139t-139 335q0 130 64 239.5t173 172t237 62.5zM500 819q-181 0 -310 -128t-129 -311q0 -119 59 -220t160 -160t220 -59q182 0 310.5 128.5t128.5 310.5q0 183 -129 311t-310 128zM708 355
h-347q0 -37 4.5 -58t18.5 -40t43.5 -26.5t78.5 -7.5q62 0 93 15.5t32 63.5h77q-4 -149 -200 -149q-130 0 -176 51.5t-46 167.5q0 42 2.5 68.5t14 61t33 54t63 34t100.5 14.5q75 0 123 -21.5t71 -75.5q15 -37 15 -152zM361 417h270q-1 30 -4.5 45.5t-15 35.5t-39 28.5
t-72.5 8.5q-75 0 -104.5 -26t-34.5 -92z" />
    <glyph glyph-name="uni24D5" unicode="&#x24d5;" 
d="M500 854q128 0 237 -62.5t173 -172t64 -239.5q0 -196 -139 -335t-335 -139t-335 139t-139 335q0 130 64 239.5t173 172t237 62.5zM500 819q-181 0 -310 -128t-129 -311q0 -119 59 -220t160 -160t220 -59q182 0 310.5 128.5t128.5 310.5q0 183 -129 311t-310 128zM525 512
h117v-71h-117v-369h-77v369h-86v71h86v27q0 77 46 102.5t148 20.5v-68q-23 2 -44.5 1t-37.5 -5t-25.5 -16t-9.5 -32v-30z" />
    <glyph glyph-name="uni24D6" unicode="&#x24d6;" 
d="M750 661v-63q-31 -1 -43.5 -5.5t-23.5 -18.5q15 -26 15 -59q0 -44 -15 -72.5t-45 -41.5t-60 -17t-75 -4q-102 0 -143 23q-26 -17 -26 -33q0 -27 43 -30l230 -15q41 -3 68 -14.5t38 -29.5t14 -32t3 -33q0 -71 -51 -97t-182 -26q-122 0 -179.5 23t-57.5 88q0 58 48 85
q-19 7 -31 25t-12 42q0 35 17.5 54t37.5 23q-24 28 -24 86q0 73 56 99.5t162 26.5q95 0 130 -26q29 45 106 42zM498 580q-72 0 -101 -13t-29 -58q0 -39 31.5 -51t100.5 -12q68 0 96.5 13.5t28.5 55.5q0 38 -27 51.5t-100 13.5zM556 266l-165 11q-61 -10 -61 -58
q0 -27 18 -40q25 -19 181 -19q36 0 62 4.5t38.5 9.5t19 14t7.5 14t1 13q0 23 -19.5 35t-81.5 16zM500 854q128 0 237 -62.5t173 -172t64 -239.5q0 -196 -139 -335t-335 -139t-335 139t-139 335q0 130 64 239.5t173 172t237 62.5zM500 819q-181 0 -310 -128t-129 -311
q0 -119 59 -220t160 -160t220 -59q182 0 310.5 128.5t128.5 310.5q0 183 -129 311t-310 128z" />
    <glyph glyph-name="uni24D7" unicode="&#x24d7;" 
d="M500 854q128 0 237 -62.5t173 -172t64 -239.5q0 -196 -139 -335t-335 -139t-335 139t-139 335q0 130 64 239.5t173 172t237 62.5zM500 819q-181 0 -310 -128t-129 -311q0 -119 59 -220t160 -160t220 -59q182 0 310.5 128.5t128.5 310.5q0 183 -129 311t-310 128zM302 683
h76v-194q42 55 144 55q176 0 176 -151v-295h-76v281q0 17 -2.5 28.5t-12 29.5t-35.5 28t-67 10q-70 0 -98.5 -30.5t-28.5 -92.5v-254h-76v585z" />
    <glyph glyph-name="uni24D8" unicode="&#x24d8;" 
d="M462 526h76v-440h-76v440zM456 671h89v-88h-89v88zM500 854q128 0 237 -62.5t173 -172t64 -239.5q0 -196 -139 -335t-335 -139t-335 139t-139 335q0 130 64 239.5t173 172t237 62.5zM500 819q-181 0 -310 -128t-129 -311q0 -119 59 -220t160 -160t220 -59
q182 0 310.5 128.5t128.5 310.5q0 183 -129 311t-310 128z" />
    <glyph glyph-name="uni24D9" unicode="&#x24d9;" 
d="M500 854q128 0 237 -62.5t173 -172t64 -239.5q0 -196 -139 -335t-335 -139t-335 139t-139 335q0 130 64 239.5t173 172t237 62.5zM500 819q-181 0 -310 -128t-129 -311q0 -119 59 -220t160 -160t220 -59q182 0 310.5 128.5t128.5 310.5q0 183 -129 311t-310 128zM478 712
h89v-88h-89v88zM485 563h76v-407q0 -33 -10 -55.5t-22.5 -34t-36 -17.5t-38.5 -7t-43 -1h-9v70q24 0 35.5 0.5t24.5 5.5t18 17t5 33v396z" />
    <glyph glyph-name="uni24DA" unicode="&#x24da;" 
d="M500 854q128 0 237 -62.5t173 -172t64 -239.5q0 -196 -139 -335t-335 -139t-335 139t-139 335q0 130 64 239.5t173 172t237 62.5zM500 819q-181 0 -310 -128t-129 -311q0 -119 59 -220t160 -160t220 -59q182 0 310.5 128.5t128.5 310.5q0 183 -129 311t-310 128zM440 354
l168 188h97l-193 -204l215 -234h-98l-189 217v-217h-76v584h76v-334z" />
    <glyph glyph-name="uni24DB" unicode="&#x24db;" 
d="M500 854q128 0 237 -62.5t173 -172t64 -239.5q0 -196 -139 -335t-335 -139t-335 139t-139 335q0 130 64 239.5t173 172t237 62.5zM500 819q-181 0 -310 -128t-129 -311q0 -119 59 -220t160 -160t220 -59q182 0 310.5 128.5t128.5 310.5q0 183 -129 311t-310 128zM462 672
h76v-584h-76v584z" />
    <glyph glyph-name="uni24DC" unicode="&#x24dc;" 
d="M500 854q128 0 237 -62.5t173 -172t64 -239.5q0 -196 -139 -335t-335 -139t-335 139t-139 335q0 130 64 239.5t173 172t237 62.5zM500 819q-181 0 -310 -128t-129 -311q0 -119 59 -220t160 -160t220 -59q182 0 310.5 128.5t128.5 310.5q0 183 -129 311t-310 128zM200 599
h73l2 -44q41 50 121 50q89 0 128 -62q46 62 131 62q40 0 68.5 -10.5t43 -24.5t22.5 -35t9.5 -34.5t1.5 -31.5v-308h-76v294q0 18 -2 29.5t-9.5 25t-26 20t-47.5 6.5q-51 0 -75.5 -21t-24.5 -70v-284h-76v285q0 19 -1.5 30t-8.5 27t-25.5 24t-48.5 8q-103 0 -103 -86v-288
h-76v438z" />
    <glyph glyph-name="uni24DD" unicode="&#x24dd;" 
d="M500 854q128 0 237 -62.5t173 -172t64 -239.5q0 -196 -139 -335t-335 -139t-335 139t-139 335q0 130 64 239.5t173 172t237 62.5zM500 819q-181 0 -310 -128t-129 -311q0 -119 59 -220t160 -160t220 -59q182 0 310.5 128.5t128.5 310.5q0 183 -129 311t-310 128zM317 599
h72l3 -43q36 49 130 49q161 0 161 -147v-297h-76v285q0 16 -0.5 25t-6 25t-15.5 25t-31 16.5t-51 7.5q-36 0 -60 -11.5t-34 -32.5t-13 -39.5t-3 -43.5v-257h-76v438z" />
    <glyph glyph-name="uni24DE" unicode="&#x24de;" 
d="M500 854q128 0 237 -62.5t173 -172t64 -239.5q0 -196 -139 -335t-335 -139t-335 139t-139 335q0 130 64 239.5t173 172t237 62.5zM500 819q-181 0 -310 -128t-129 -311q0 -119 59 -220t160 -160t220 -59q182 0 310.5 128.5t128.5 310.5q0 183 -129 311t-310 128zM300 380
q0 64 7.5 103t29 68.5t61 41.5t102.5 12q67 0 108 -14t61 -47.5t25.5 -71t5.5 -102.5q0 -123 -42.5 -169t-157.5 -46q-65 0 -105 13t-60.5 43.5t-27.5 68.5t-7 100zM624 380q0 48 -3 73t-15.5 46t-37.5 28.5t-68 7.5q-26 0 -44.5 -3t-32.5 -8t-22.5 -16.5t-13.5 -22
t-7.5 -31t-3 -38t-0.5 -48.5q0 -85 23 -114t101 -29q44 0 69 7.5t37 29t15 46t3 72.5z" />
    <glyph glyph-name="uni24DF" unicode="&#x24df;" 
d="M500 854q128 0 237 -62.5t173 -172t64 -239.5q0 -196 -139 -335t-335 -139t-335 139t-139 335q0 130 64 239.5t173 172t237 62.5zM500 819q-181 0 -310 -128t-129 -311q0 -119 59 -220t160 -160t220 -59q182 0 310.5 128.5t128.5 310.5q0 183 -129 311t-310 128zM317 626
h71l2 -44q11 15 21 23.5t39 17.5t72 9q106 0 142 -55.5t36 -176.5q0 -113 -38.5 -166t-137.5 -53q-45 0 -75 9.5t-38.5 17t-20.5 22.5v-144h-73v540zM508 563q-72 0 -94 -38.5t-22 -125.5q0 -88 27.5 -119t89.5 -31q40 0 64 10.5t35 35t13.5 48t2.5 65.5q0 87 -22.5 121
t-93.5 34z" />
    <glyph glyph-name="uni24E0" unicode="&#x24e0;" 
d="M500 854q128 0 237 -62.5t173 -172t64 -239.5q0 -196 -139 -335t-335 -139t-335 139t-139 335q0 130 64 239.5t173 172t237 62.5zM500 819q-181 0 -310 -128t-129 -311q0 -119 59 -220t160 -160t220 -59q182 0 310.5 128.5t128.5 310.5q0 183 -129 311t-310 128zM683 626
v-540h-73v144q-11 -14 -20 -22t-39 -17.5t-74 -9.5q-97 0 -137 51t-40 168q0 120 35.5 176t142.5 56q43 0 72 -9t39 -17.5t21 -23.5l2 44h71zM492 563q-75 0 -95.5 -36.5t-20.5 -132.5q0 -77 23 -111t92 -34q71 0 94 36.5t23 124.5q0 85 -25.5 119t-90.5 34z" />
    <glyph glyph-name="uni24E1" unicode="&#x24e1;" 
d="M500 854q128 0 237 -62.5t173 -172t64 -239.5q0 -196 -139 -335t-335 -139t-335 139t-139 335q0 130 64 239.5t173 172t237 62.5zM500 819q-181 0 -310 -128t-129 -311q0 -119 59 -220t160 -160t220 -59q182 0 310.5 128.5t128.5 310.5q0 183 -129 311t-310 128zM418 583
h72l3 -43q17 23 44 34.5t47 13.5t56 1v-74q-40 2 -61 0q-7 -1 -18.5 -4.5t-28 -12.5t-28 -29t-11.5 -47v-277h-75v438z" />
    <glyph glyph-name="uni24E2" unicode="&#x24e2;" 
d="M500 854q128 0 237 -62.5t173 -172t64 -239.5q0 -196 -139 -335t-335 -139t-335 139t-139 335q0 130 64 239.5t173 172t237 62.5zM500 819q-181 0 -310 -128t-129 -311q0 -119 59 -220t160 -160t220 -59q182 0 310.5 128.5t128.5 310.5q0 183 -129 311t-310 128zM679 472
h-76q0 15 -3 25t-12.5 20.5t-31.5 15.5t-57 5q-62 0 -87 -15t-25 -54q0 -24 13.5 -33t48.5 -13l141 -16q102 -11 102 -120q0 -36 -13 -62t-30.5 -39.5t-46.5 -20.5t-49.5 -8.5t-50.5 -1.5q-62 0 -101.5 10t-59 31.5t-26.5 46t-8 61.5h75q0 -23 2.5 -33t14 -23.5t39 -19
t73.5 -5.5q65 0 85.5 17t20.5 50q0 22 -9.5 33.5t-20.5 14.5t-37 6l-138 16q-96 10 -96 110q0 38 15 65.5t33.5 40.5t48.5 20t46 8t41 1q50 0 85.5 -9.5t53.5 -21t27.5 -32.5t11 -34t1.5 -36z" />
    <glyph glyph-name="uni24E3" unicode="&#x24e3;" 
d="M500 854q128 0 237 -62.5t173 -172t64 -239.5q0 -196 -139 -335t-335 -139t-335 139t-139 335q0 130 64 239.5t173 172t237 62.5zM500 819q-181 0 -310 -128t-129 -311q0 -119 59 -220t160 -160t220 -59q182 0 310.5 128.5t128.5 310.5q0 183 -129 311t-310 128zM443 547
v104h77v-104h112v-71h-112v-240q0 -25 3.5 -36t22 -19t58.5 -8q24 0 42 3v-71q-33 -3 -52 -3q-90 0 -120.5 27t-30.5 89v258h-92v71h92z" />
    <glyph glyph-name="uni24E4" unicode="&#x24e4;" 
d="M500 854q128 0 237 -62.5t173 -172t64 -239.5q0 -196 -139 -335t-335 -139t-335 139t-139 335q0 130 64 239.5t173 172t237 62.5zM500 819q-181 0 -310 -128t-129 -311q0 -119 59 -220t160 -160t220 -59q182 0 310.5 128.5t128.5 310.5q0 183 -129 311t-310 128zM683 161
h-72l-3 43q-36 -49 -130 -49q-161 0 -161 147v297h76v-285q0 -16 0.5 -25t6 -25t15.5 -25t31 -16.5t50 -7.5q37 0 60.5 11.5t34 32.5t13.5 39.5t3 43.5v257h76v-438z" />
    <glyph glyph-name="uni24E5" unicode="&#x24e5;" 
d="M500 854q128 0 237 -62.5t173 -172t64 -239.5q0 -196 -139 -335t-335 -139t-335 139t-139 335q0 130 64 239.5t173 172t237 62.5zM500 819q-181 0 -310 -128t-129 -311q0 -119 59 -220t160 -160t220 -59q182 0 310.5 128.5t128.5 310.5q0 183 -129 311t-310 128zM305 575
h83l112 -349l112 349h83l-153 -438h-84z" />
    <glyph glyph-name="uni24E6" unicode="&#x24e6;" 
d="M500 489l-84 -352h-96l-112 438h79l83 -348l83 348h94l83 -348l83 348h79l-112 -438h-96zM500 854q128 0 237 -62.5t173 -172t64 -239.5q0 -196 -139 -335t-335 -139t-335 139t-139 335q0 130 64 239.5t173 172t237 62.5zM500 819q-181 0 -310 -128t-129 -311
q0 -119 59 -220t160 -160t220 -59q182 0 310.5 128.5t128.5 310.5q0 183 -129 311t-310 128z" />
    <glyph glyph-name="uni24E7" unicode="&#x24e7;" 
d="M500 351l-102 -190h-91l134 232l-122 206h90l91 -168l91 168h90l-122 -206l134 -232h-91zM500 854q128 0 237 -62.5t173 -172t64 -239.5q0 -196 -139 -335t-335 -139t-335 139t-139 335q0 130 64 239.5t173 172t237 62.5zM500 819q-181 0 -310 -128t-129 -311
q0 -119 59 -220t160 -160t220 -59q182 0 310.5 128.5t128.5 310.5q0 183 -129 311t-310 128z" />
    <glyph glyph-name="uni24E8" unicode="&#x24e8;" 
d="M500 854q128 0 237 -62.5t173 -172t64 -239.5q0 -196 -139 -335t-335 -139t-335 139t-139 335q0 130 64 239.5t173 172t237 62.5zM500 819q-181 0 -310 -128t-129 -311q0 -119 59 -220t160 -160t220 -59q182 0 310.5 128.5t128.5 310.5q0 183 -129 311t-310 128zM304 634
h85l117 -329l105 329h85l-162 -447q-21 -58 -51.5 -78.5t-81.5 -20.5q-29 0 -62 5v68q55 -5 62 -5q43 0 58 42l9 25z" />
    <glyph glyph-name="uni24E9" unicode="&#x24e9;" 
d="M500 854q128 0 237 -62.5t173 -172t64 -239.5q0 -196 -139 -335t-335 -139t-335 139t-139 335q0 130 64 239.5t173 172t237 62.5zM500 819q-181 0 -310 -128t-129 -311q0 -119 59 -220t160 -160t220 -59q182 0 310.5 128.5t128.5 310.5q0 183 -129 311t-310 128zM349 599
h308v-70l-221 -298h222v-70h-316v70l221 298h-214v70z" />
    <glyph glyph-name="uni24EA" unicode="&#x24ea;" 
d="M337 380q0 72 3 116.5t12.5 83t27.5 58t47 30t73 10.5t73 -10.5t47 -29.5t27.5 -58t12.5 -83t3 -117t-3 -117t-12.5 -83t-27.5 -58t-47 -29.5t-73 -10.5t-73 10.5t-47 29.5t-27.5 58t-12.5 83t-3 117zM597 380q0 150 -17 192.5t-82 42.5q-62 0 -78.5 -44t-16.5 -191
q0 -150 17 -192.5t82 -42.5q62 0 78.5 44t16.5 191zM500 854q128 0 237 -62.5t173 -172t64 -239.5q0 -196 -139 -335t-335 -139t-335 139t-139 335q0 130 64 239.5t173 172t237 62.5zM500 819q-181 0 -310 -128t-129 -311q0 -119 59 -220t160 -160t220 -59
q182 0 310.5 128.5t128.5 310.5q0 183 -129 311t-310 128z" />
    <glyph glyph-name="uni24EB" unicode="&#x24eb;" 
d="M500 854q128 0 237 -62.5t173 -172t64 -239.5q0 -196 -139 -335t-335 -139t-335 139t-139 335q0 130 64 239.5t173 172t237 62.5zM370 672h-175v-63h108v-521h67v584zM734 672h-175v-63h108v-521h67v584z" />
    <glyph glyph-name="uni24EC" unicode="&#x24ec;" 
d="M500 854q128 0 237 -62.5t173 -172t64 -239.5q0 -196 -139 -335t-335 -139t-335 139t-139 335q0 130 64 239.5t173 172t237 62.5zM330 672h-175v-63h108v-521h67v584zM623 306l75 29q58 23 79.5 60t21.5 118q0 88 -35 126.5t-120 38.5q-44 0 -74.5 -11t-46.5 -26.5
t-24.5 -44.5t-10 -52.5t-1.5 -61.5h64q0 30 1 45t5.5 35.5t14 29.5t27 16t44.5 7q55 0 73 -26t18 -87q0 -41 -10.5 -64.5t-23 -31.5t-39.5 -19l-65 -25q-32 -12 -45.5 -19.5t-31 -25t-23 -44.5t-9.5 -71.5t-3 -113.5h313v63h-249q0 83 14.5 110.5t60.5 44.5z" />
    <glyph glyph-name="uni24ED" unicode="&#x24ed;" 
d="M500 854q128 0 237 -62.5t173 -172t64 -239.5q0 -196 -139 -335t-335 -139t-335 139t-139 335q0 130 64 239.5t173 172t237 62.5zM330 672h-175v-63h108v-521h67v584zM550 274h-66q-1 -47 3 -76t18.5 -58.5t49 -43.5t89.5 -14q78 0 117.5 36.5t39.5 128.5q0 42 -7.5 70.5
t-22 43t-24 20t-26.5 10.5q76 24 76 131q0 84 -37.5 120t-118.5 36q-41 0 -70 -10.5t-45 -26t-25 -40.5t-11.5 -47.5t-2.5 -53.5h66q0 24 0.5 36t5 30t14 26.5t27.5 15.5t44 7q53 0 70.5 -25t17.5 -73q0 -64 -21.5 -80.5t-79.5 -16.5h-46v-61h41q19 0 28 -0.5t24.5 -3.5
t24 -9.5t17 -18t12.5 -30t4 -44.5q0 -59 -21.5 -83.5t-71.5 -24.5q-64 0 -79.5 28t-13.5 101z" />
    <glyph glyph-name="uni24EE" unicode="&#x24ee;" 
d="M500 854q128 0 237 -62.5t173 -172t64 -239.5q0 -196 -139 -335t-335 -139t-335 139t-139 335q0 130 64 239.5t173 172t237 62.5zM330 672h-175v-63h108v-521h67v584zM760 672h-93l-193 -377v-73h221v-134h65v134h53v63h-53v387zM536 285l159 315v-315h-159z" />
    <glyph glyph-name="uni24EF" unicode="&#x24ef;" 
d="M500 854q128 0 237 -62.5t173 -172t64 -239.5q0 -196 -139 -335t-335 -139t-335 139t-139 335q0 130 64 239.5t173 172t237 62.5zM330 672h-175v-63h108v-521h67v584zM788 672h-292l-6 -326h61q2 12 4.5 20t11.5 21.5t29.5 20.5t50.5 7q54 0 69.5 -31t15.5 -112
q0 -72 -18.5 -99.5t-72.5 -27.5q-58 0 -75.5 26t-15.5 84h-67q0 -99 39 -136t119 -37q93 0 125.5 47t32.5 155q0 45 -5 76t-19 59.5t-43 42.5t-73 14q-60 0 -102 -35l4 168h227v63z" />
    <glyph glyph-name="uni24F0" unicode="&#x24f0;" 
d="M731 519h65q4 159 -150 159q-38 0 -65 -6.5t-45 -25.5t-28.5 -40t-15.5 -63t-6.5 -80.5t-1.5 -105.5q0 -47 1 -74t4 -60.5t10 -52t18.5 -38t29 -29t43 -15.5t59.5 -6q43 0 73.5 13.5t45.5 31t23 47.5t9.5 50t1.5 52q0 28 -2 49t-10.5 47t-23 43t-42 28.5t-65.5 11.5
q-73 0 -111 -47q1 131 19 169.5t77 38.5q53 0 70 -22.5t17 -74.5zM500 854q128 0 237 -62.5t173 -172t64 -239.5q0 -196 -139 -335t-335 -139t-335 139t-139 335q0 130 64 239.5t173 172t237 62.5zM330 672h-175v-63h108v-521h67v584zM643 393q50 0 72 -24t22 -91
q0 -77 -18.5 -105.5t-72.5 -28.5q-47 0 -71 23t-24 93t19 101.5t73 31.5z" />
    <glyph glyph-name="uni24F1" unicode="&#x24f1;" 
d="M500 854q128 0 237 -62.5t173 -172t64 -239.5q0 -196 -139 -335t-335 -139t-335 139t-139 335q0 130 64 239.5t173 172t237 62.5zM346 672h-175v-63h108v-521h67v584zM828 672h-339v-63h275l-206 -521h74l196 513v71z" />
    <glyph glyph-name="uni24F2" unicode="&#x24f2;" 
d="M500 854q128 0 237 -62.5t173 -172t64 -239.5q0 -196 -139 -335t-335 -139t-335 139t-139 335q0 130 64 239.5t173 172t237 62.5zM330 672h-175v-63h108v-521h67v584zM720 391q13 5 22.5 10.5t23.5 19t21.5 39t7.5 60.5q0 51 -13 85t-38 48.5t-48 19.5t-56 5
q-71 0 -110.5 -34t-39.5 -124q0 -35 7.5 -60.5t22.5 -39t23 -18.5t22 -11q-15 -4 -25 -9t-25.5 -19.5t-24 -45.5t-8.5 -76q0 -83 39.5 -121t121.5 -38q88 0 124.5 41t36.5 120q0 126 -84 148zM643 145q-32 0 -52 8t-29 25t-11.5 32t-2.5 39q0 60 20.5 85.5t76.5 25.5
q57 0 75 -29t18 -85q0 -48 -18.5 -74.5t-76.5 -26.5zM643 423q-31 0 -50.5 8.5t-27 25.5t-9.5 29t-2 31q0 47 17.5 72.5t71.5 25.5q55 0 72 -26t17 -73q0 -19 -2.5 -31.5t-10 -28.5t-27 -24.5t-49.5 -8.5z" />
    <glyph glyph-name="uni24F3" unicode="&#x24f3;" 
d="M553 241h-65q0 -32 5 -56.5t19.5 -49.5t46.5 -39t79 -14q46 0 75.5 12t47 32t26 64.5t11 89t2.5 125.5q0 46 -1 73t-4 60.5t-10 51.5t-18.5 37.5t-29 29t-43 15.5t-59.5 6q-43 0 -73.5 -13.5t-45.5 -31t-23.5 -48t-9.5 -50t-1 -51.5q0 -28 2 -49.5t10.5 -47t23.5 -42.5
t42 -28.5t65 -11.5q73 0 111 47q-1 -91 -9.5 -134.5t-27.5 -58.5t-59 -15q-52 0 -69.5 23t-17.5 74zM500 854q128 0 237 -62.5t173 -172t64 -239.5q0 -196 -139 -335t-335 -139t-335 139t-139 335q0 130 64 239.5t173 172t237 62.5zM330 672h-175v-63h108v-521h67v584z
M641 367q-50 0 -72 23.5t-22 91.5q0 77 19 105.5t72 28.5q47 0 71 -23t24 -94q0 -69 -19 -100.5t-73 -31.5z" />
    <glyph glyph-name="uni24F4" unicode="&#x24f4;" 
d="M500 854q128 0 237 -62.5t173 -172t64 -239.5q0 -196 -139 -335t-335 -139t-335 139t-139 335q0 130 64 239.5t173 172t237 62.5zM299 306l75 29q58 23 79.5 60t21.5 118q0 87 -35 126t-121 39q-44 0 -74 -11t-46.5 -26.5t-25 -44t-10 -52.5t-1.5 -62h65q0 38 1.5 56
t10 39t27.5 29.5t52 8.5q54 0 72.5 -26t18.5 -88q0 -58 -16.5 -78.5t-56.5 -35.5l-64 -25q-39 -15 -57.5 -27.5t-34 -41.5t-19 -75.5t-2.5 -129.5h313v63h-248q-1 83 13.5 110t61.5 45zM519 380q0 -72 3 -116.5t12.5 -83t27.5 -58t47 -30t73 -10.5t73 10.5t47 30t27.5 58
t12.5 83t3 116.5t-3 116t-12 83t-27.5 58.5t-47.5 30t-73 10.5t-73 -10.5t-47 -30t-27.5 -58t-12.5 -83t-3 -116.5zM779 380q0 -147 -16.5 -191t-78.5 -44q-65 0 -82 43t-17 192q0 147 16.5 191t79.5 44q64 0 81 -43t17 -192z" />
    <glyph glyph-name="uni2776" unicode="&#x2776;" 
d="M500 854q128 0 237 -62.5t173 -172t64 -239.5q0 -196 -139 -335t-335 -139t-335 139t-139 335q0 130 64 239.5t173 172t237 62.5zM548 681h-180v-66h111v-536h69v602z" />
    <glyph glyph-name="uni2777" unicode="&#x2777;" 
d="M500 854q128 0 237 -62.5t173 -172t64 -239.5q0 -196 -139 -335t-335 -139t-335 139t-139 335q0 130 64 239.5t173 172t237 62.5zM482 304l77 30q60 23 82 61.5t22 120.5q0 91 -36 131t-124 40q-45 0 -76.5 -11.5t-48 -27.5t-25.5 -45.5t-10.5 -54t-1.5 -63.5h67
q0 39 2 58.5t10.5 40.5t28.5 29.5t53 8.5q56 0 75 -26.5t19 -90.5q0 -42 -11 -66.5t-23.5 -32.5t-40.5 -19l-67 -26q-40 -16 -59.5 -28.5t-34.5 -43.5t-19 -78t-3 -132h323v66h-256q-1 84 14 112t63 47z" />
    <glyph glyph-name="uni2778" unicode="&#x2778;" 
d="M500 854q128 0 237 -62.5t173 -172t64 -239.5q0 -196 -139 -335t-335 -139t-335 139t-139 335q0 130 64 239.5t173 172t237 62.5zM404 271h-67q-1 -49 3.5 -80t20 -60.5t50.5 -43.5t91 -14q81 0 121 38.5t40 131.5q0 43 -8 73t-23 44.5t-25 20t-26 10.5q78 25 78 135
q0 85 -38.5 123t-122.5 38q-53 0 -86.5 -15t-48 -44.5t-19 -56.5t-4.5 -68h68q0 31 2 47t10 35.5t28.5 28t53.5 8.5q55 0 72.5 -26t17.5 -75q0 -65 -22 -82t-82 -17h-47v-63h42q29 0 43.5 -2t33.5 -11.5t27.5 -33t8.5 -62.5q0 -63 -22 -87.5t-74 -24.5q-35 0 -55.5 7.5
t-29 27.5t-10.5 39.5t-1 58.5z" />
    <glyph glyph-name="uni2779" unicode="&#x2779;" 
d="M500 854q128 0 237 -62.5t173 -172t64 -239.5q0 -196 -139 -335t-335 -139t-335 139t-139 335q0 130 64 239.5t173 172t237 62.5zM586 681h-96l-199 -389v-74h227v-139h68v139h54v64h-54v399zM355 282l164 324v-324h-164z" />
    <glyph glyph-name="uni277A" unicode="&#x277a;" 
d="M500 854q128 0 237 -62.5t173 -172t64 -239.5q0 -196 -139 -335t-335 -139t-335 139t-139 335q0 130 64 239.5t173 172t237 62.5zM652 681h-300l-7 -336h62q2 12 5 20.5t12 22t30 21t52 7.5q57 0 72.5 -32.5t15.5 -115.5q0 -74 -19 -102t-75 -28q-59 0 -77.5 26t-16.5 87
h-68q-1 -102 40 -140t123 -38q95 0 128.5 48t33.5 160q0 97 -29 147.5t-115 50.5q-30 0 -52.5 -7t-31 -12.5t-22.5 -17.5l5 173h234v66z" />
    <glyph glyph-name="uni277B" unicode="&#x277b;" 
d="M500 854q128 0 237 -62.5t173 -172t64 -239.5q0 -196 -139 -335t-335 -139t-335 139t-139 335q0 130 64 239.5t173 172t237 62.5zM591 523h67q4 164 -154 164q-47 0 -77.5 -12.5t-49 -33.5t-27 -66.5t-11 -91t-2.5 -127.5q0 -48 1 -76t4 -63t10 -53.5t19 -38.5
t30.5 -29.5t44.5 -16t61 -6.5q44 0 75 13.5t47 31.5t24 49t9.5 51.5t1.5 54.5q0 29 -2 50.5t-10.5 48t-23.5 44t-43.5 29.5t-67.5 12q-78 0 -114 -48q2 134 19.5 174t79.5 40q54 0 72 -23.5t17 -76.5zM501 394q52 0 74 -25.5t22 -93.5q0 -79 -19 -108.5t-74 -29.5
q-49 0 -73.5 24t-24.5 95q0 72 19.5 105t75.5 33z" />
    <glyph glyph-name="uni277C" unicode="&#x277c;" 
d="M500 854q128 0 237 -62.5t173 -172t64 -239.5q0 -196 -139 -335t-335 -139t-335 139t-139 335q0 130 64 239.5t173 172t237 62.5zM673 681h-349v-66h283l-212 -536h76l202 529v73z" />
    <glyph glyph-name="uni277D" unicode="&#x277d;" 
d="M500 854q128 0 237 -62.5t173 -172t64 -239.5q0 -196 -139 -335t-335 -139t-335 139t-139 335q0 130 64 239.5t173 172t237 62.5zM580 392q14 5 23 10.5t23.5 19.5t22.5 40t8 62q0 53 -13.5 87.5t-38.5 50t-49.5 20.5t-58.5 5q-74 0 -114 -35.5t-40 -127.5
q0 -105 77 -132q-12 -3 -19 -6t-21.5 -13.5t-23 -25.5t-15.5 -44t-7 -66q0 -85 40 -124.5t126 -39.5q92 0 129 43t37 123q0 130 -86 153zM500 138q-33 0 -54 8.5t-30 26t-11.5 33t-2.5 40.5q0 61 21.5 87t78.5 26q59 0 77.5 -29.5t18.5 -87.5q0 -49 -19 -76.5t-79 -27.5z
M500 424q-32 0 -52 9t-27.5 26.5t-9.5 29.5t-2 32q0 48 17.5 74.5t73.5 26.5q30 0 49.5 -8t28 -24t11 -31.5t2.5 -38.5q0 -19 -2 -32t-10 -30t-28 -25.5t-51 -8.5z" />
    <glyph glyph-name="uni277E" unicode="&#x277e;" 
d="M500 854q128 0 237 -62.5t173 -172t64 -239.5q0 -196 -139 -335t-335 -139t-335 139t-139 335q0 130 64 239.5t173 172t237 62.5zM408 237h-67q0 -34 5.5 -60t21 -51.5t47.5 -39t80 -13.5q30 0 52.5 4t40 14.5t29.5 22.5t20.5 35t13.5 44.5t7.5 58.5t3 69.5t0.5 84.5
q0 56 -1 87t-6.5 68t-16 56.5t-29.5 37.5t-47.5 25t-69.5 7q-44 0 -75 -13.5t-47 -31.5t-24 -49t-9.5 -52t-1.5 -54q0 -37 4.5 -64.5t18.5 -57.5t45 -46t79 -16q78 0 114 48q-1 -94 -10 -138.5t-28.5 -60t-60.5 -15.5q-54 0 -72 23t-17 77zM498 366q-53 0 -74.5 26t-21.5 95
q0 79 20 107.5t74 28.5q48 0 72.5 -23.5t24.5 -96.5q0 -71 -19.5 -104t-75.5 -33z" />
    <glyph glyph-name="uni277F" unicode="&#x277f;" 
d="M500 854q128 0 237 -62.5t173 -172t64 -239.5q0 -196 -139 -335t-335 -139t-335 139t-139 335q0 130 64 239.5t173 172t237 62.5zM330 672h-175v-63h108v-521h67v584zM479 380q0 -72 3 -116.5t12.5 -83t27.5 -58t47 -30t73 -10.5t73 10.5t47 30t27.5 58t12.5 83t3 116.5
t-3 116t-12 83t-27.5 58.5t-47.5 30t-73 10.5t-73 -10.5t-47 -30t-27.5 -58t-12.5 -83t-3 -116.5zM739 380q0 -147 -16.5 -191t-78.5 -44q-65 0 -82 43t-17 192q0 147 16.5 191t79.5 44q64 0 81 -43t17 -192z" />
    <glyph glyph-name="uni3251" unicode="&#x3251;" 
d="M500 854q128 0 237 -62.5t173 -172t64 -239.5q0 -196 -139 -335t-335 -139t-335 139t-139 335q0 130 64 239.5t173 172t237 62.5zM500 819q-181 0 -310 -128t-129 -311q0 -119 59 -220t160 -160t220 -59q182 0 310.5 128.5t128.5 310.5q0 183 -129 311t-310 128zM407 336
l-73 -28q-31 -12 -44.5 -24t-20.5 -41t-7 -85h241v-62h-304q-1 105 7.5 153t29.5 70t72 43l63 25q21 8 30 13t20.5 17t16 31.5t4.5 49.5q0 60 -18 85t-71 25q-55 0 -71.5 -27t-16.5 -88v-14h-63q0 27 0.5 42t3.5 38t8.5 36.5t17 29.5t27.5 24.5t40 14.5t56 6q82 0 116 -38
t34 -123q0 -80 -21 -116t-77 -57zM585 664h170v-568h-65v506h-105v62z" />
    <glyph glyph-name="uni3252" unicode="&#x3252;" 
d="M500 854q128 0 237 -62.5t173 -172t64 -239.5q0 -196 -139 -335t-335 -139t-335 139t-139 335q0 130 64 239.5t173 172t237 62.5zM500 819q-181 0 -310 -128t-129 -311q0 -119 59 -220t160 -160t220 -59q182 0 310.5 128.5t128.5 310.5q0 183 -129 311t-310 128zM383 336
l-73 -28q-31 -12 -44.5 -24t-20.5 -41t-7 -85h241v-62h-304q-1 105 7.5 153t29.5 70t72 43l63 25q21 8 30 13t20.5 17t16 31.5t4.5 49.5q0 60 -18 85t-71 25q-55 0 -71.5 -27t-16.5 -88v-14h-63q0 27 0.5 42t3.5 38t8.5 36.5t17 29.5t27.5 24.5t40 14.5t56 6q82 0 116 -38
t34 -123q0 -80 -21 -116t-77 -57zM727 336l-73 -28q-31 -12 -44.5 -24t-20.5 -41t-7 -85h241v-62h-304q-1 105 7.5 153t29.5 70t72 43l63 25q21 8 30 13t20.5 17t16 31.5t4.5 49.5q0 60 -18 85t-71 25q-55 0 -71.5 -27t-16.5 -88v-14h-63q0 27 0.5 42t3.5 38t8.5 36.5
t17 29.5t27.5 24.5t40 14.5t56 6q82 0 116 -38t34 -123q0 -80 -21 -116t-77 -57z" />
    <glyph glyph-name="uni3253" unicode="&#x3253;" 
d="M500 854q128 0 237 -62.5t173 -172t64 -239.5q0 -196 -139 -335t-335 -139t-335 139t-139 335q0 130 64 239.5t173 172t237 62.5zM500 819q-181 0 -310 -128t-129 -311q0 -119 59 -220t160 -160t220 -59q182 0 310.5 128.5t128.5 310.5q0 183 -129 311t-310 128zM383 336
l-73 -28q-31 -12 -44.5 -24t-20.5 -41t-7 -85h241v-62h-304q-1 105 7.5 153t29.5 70t72 43l63 25q21 8 30 13t20.5 17t16 31.5t4.5 49.5q0 60 -18 85t-71 25q-55 0 -71.5 -27t-16.5 -88v-14h-63q0 27 0.5 42t3.5 38t8.5 36.5t17 29.5t27.5 24.5t40 14.5t56 6q82 0 116 -38
t34 -123q0 -80 -21 -116t-77 -57zM517 277h64q-2 -71 13 -98t77 -27q49 0 69.5 23.5t20.5 81.5q0 37 -8 59.5t-26 31t-32 10.5t-41 2h-39v59h44q57 0 78 16t21 78q0 46 -17 70.5t-68 24.5q-32 0 -51 -8t-26.5 -26.5t-9.5 -33.5t-2 -44h-64q0 39 4.5 65.5t18.5 53.5t45.5 41
t80.5 14q79 0 115.5 -36t36.5 -116q0 -50 -16 -82t-58 -45q17 -6 26 -10.5t23.5 -19t21.5 -42t7 -68.5q0 -89 -38.5 -125t-114.5 -36q-53 0 -86.5 13.5t-47.5 42.5t-18 57t-3 74z" />
    <glyph glyph-name="uni3254" unicode="&#x3254;" 
d="M701 664h90v-376h52v-61h-52v-131h-63v131h-215v70zM728 593l-154 -305h154v305zM500 854q128 0 237 -62.5t173 -172t64 -239.5q0 -196 -139 -335t-335 -139t-335 139t-139 335q0 130 64 239.5t173 172t237 62.5zM500 819q-181 0 -310 -128t-129 -311q0 -119 59 -220
t160 -160t220 -59q182 0 310.5 128.5t128.5 310.5q0 183 -129 311t-310 128zM383 336l-73 -28q-31 -12 -44.5 -24t-20.5 -41t-7 -85h241v-62h-304q-1 105 7.5 153t29.5 70t72 43l63 25q21 8 30 13t20.5 17t16 31.5t4.5 49.5q0 60 -18 85t-71 25q-55 0 -71.5 -27t-16.5 -88
v-14h-63q0 27 0.5 42t3.5 38t8.5 36.5t17 29.5t27.5 24.5t40 14.5t56 6q82 0 116 -38t34 -123q0 -80 -21 -116t-77 -57z" />
    <glyph glyph-name="uni3255" unicode="&#x3255;" 
d="M500 854q128 0 237 -62.5t173 -172t64 -239.5q0 -196 -139 -335t-335 -139t-335 139t-139 335q0 130 64 239.5t173 172t237 62.5zM500 819q-181 0 -310 -128t-129 -311q0 -119 59 -220t160 -160t220 -59q182 0 310.5 128.5t128.5 310.5q0 183 -129 311t-310 128zM383 336
l-73 -28q-31 -12 -44.5 -24t-20.5 -41t-7 -85h241v-62h-304q-1 105 7.5 153t29.5 70t72 43l63 25q21 8 30 13t20.5 17t16 31.5t4.5 49.5q0 60 -18 85t-71 25q-55 0 -71.5 -27t-16.5 -88v-14h-63q0 27 0.5 42t3.5 38t8.5 36.5t17 29.5t27.5 24.5t40 14.5t56 6q82 0 116 -38
t34 -123q0 -80 -21 -116t-77 -57zM531 664h282v-62h-219l-5 -163q41 34 100 34q43 0 71 -14t41.5 -41.5t18 -57.5t4.5 -73q0 -105 -31 -151t-121 -46q-78 0 -116.5 36.5t-37.5 132.5h64q-1 -57 16 -82t73 -25q55 0 72 27.5t17 98.5q0 77 -15.5 106.5t-67.5 29.5
q-87 0 -93 -67h-60z" />
    <glyph glyph-name="uni3256" unicode="&#x3256;" 
d="M820 515h-63q0 51 -17 72.5t-67 21.5q-40 0 -58.5 -15.5t-26 -57t-8.5 -128.5q33 45 107 45q45 0 74.5 -15.5t42.5 -44t17 -54t4 -60.5q0 -32 -1 -50.5t-9 -48.5t-22 -46.5t-43.5 -30t-71.5 -13.5q-46 0 -76 11.5t-47 29t-25.5 55.5t-10.5 72.5t-2 98.5q0 78 2 121
t10.5 86t25.5 62.5t46 31.5t74 12q147 0 145 -155zM671 393q-53 0 -71 -31t-18 -98t23 -90t69 -23q52 0 70 27.5t18 102.5q0 65 -21 88.5t-70 23.5zM500 854q128 0 237 -62.5t173 -172t64 -239.5q0 -196 -139 -335t-335 -139t-335 139t-139 335q0 130 64 239.5t173 172
t237 62.5zM500 819q-181 0 -310 -128t-129 -311q0 -119 59 -220t160 -160t220 -59q182 0 310.5 128.5t128.5 310.5q0 183 -129 311t-310 128zM383 336l-73 -28q-31 -12 -44.5 -24t-20.5 -41t-7 -85h241v-62h-304q-1 105 7.5 153t29.5 70t72 43l63 25q21 8 30 13t20.5 17
t16 31.5t4.5 49.5q0 60 -18 85t-71 25q-55 0 -71.5 -27t-16.5 -88v-14h-63q0 27 0.5 42t3.5 38t8.5 36.5t17 29.5t27.5 24.5t40 14.5t56 6q82 0 116 -38t34 -123q0 -80 -21 -116t-77 -57z" />
    <glyph glyph-name="uni3257" unicode="&#x3257;" 
d="M381 336l-73 -28q-45 -17 -59 -43t-14 -107h242v-62h-305q0 80 3 122.5t16.5 72.5t32.5 42.5t58 28.5l63 25q27 11 38.5 18.5t21.5 30.5t10 62q0 60 -17.5 85t-70.5 25q-56 0 -72.5 -27t-16.5 -88v-14h-63q0 27 0.5 42t3.5 38t8.5 36.5t17 29.5t27.5 24.5t40 14.5t56 6
q83 0 117 -38t34 -123q0 -80 -21 -116t-77 -57zM504 664h329v-69l-190 -499h-72l200 506h-267v62zM500 854q128 0 237 -62.5t173 -172t64 -239.5q0 -196 -139 -335t-335 -139t-335 139t-139 335q0 130 64 239.5t173 172t237 62.5zM500 819q-181 0 -310 -128t-129 -311
q0 -119 59 -220t160 -160t220 -59q182 0 310.5 128.5t128.5 310.5q0 183 -129 311t-310 128z" />
    <glyph glyph-name="uni3258" unicode="&#x3258;" 
d="M747 391q15 -4 24.5 -9t24.5 -19.5t23 -44.5t8 -73q0 -80 -37.5 -117.5t-118.5 -37.5q-87 0 -121.5 41t-34.5 116q0 43 8.5 72.5t24 43.5t24.5 19t24 9q-13 5 -21.5 10t-22.5 18t-21.5 38t-7.5 59q0 50 12.5 82.5t36.5 47t47 19.5t55 5q69 0 107 -33.5t38 -120.5
q0 -34 -7.5 -59t-22 -38t-22 -18t-20.5 -10zM671 608q-52 0 -69 -25t-17 -71q0 -18 2 -30.5t10 -28t26.5 -23.5t47.5 -8q30 0 48.5 8t26 24t9.5 28t2 31q0 45 -17 70t-69 25zM671 360q-56 0 -74 -27t-18 -83q0 -46 18 -72t74 -26q31 0 51 8t28.5 24.5t11 31t2.5 37.5
q0 56 -19.5 81.5t-73.5 25.5zM500 854q128 0 237 -62.5t173 -172t64 -239.5q0 -196 -139 -335t-335 -139t-335 139t-139 335q0 130 64 239.5t173 172t237 62.5zM500 819q-181 0 -310 -128t-129 -311q0 -119 59 -220t160 -160t220 -59q182 0 310.5 128.5t128.5 310.5
q0 183 -129 311t-310 128zM383 336l-73 -28q-31 -12 -44.5 -24t-20.5 -41t-7 -85h241v-62h-304q-1 105 7.5 153t29.5 70t72 43l63 25q21 8 30 13t20.5 17t16 31.5t4.5 49.5q0 60 -18 85t-71 25q-55 0 -71.5 -27t-16.5 -88v-14h-63q0 27 0.5 42t3.5 38t8.5 36.5t17 29.5
t27.5 24.5t40 14.5t56 6q82 0 116 -38t34 -123q0 -80 -21 -116t-77 -57z" />
    <glyph glyph-name="uni3259" unicode="&#x3259;" 
d="M522 245h64q-1 -50 16 -72t68 -22q40 0 58.5 15.5t26 57t8.5 128.5q-39 -45 -108 -45q-45 0 -74.5 15.5t-42 44t-17 54t-4.5 60.5q0 31 1 50.5t9 49t22.5 46.5t44 30t71.5 13q46 0 76 -11.5t47 -29t25.5 -55.5t10.5 -72.5t2 -98.5q0 -55 -1 -89.5t-4.5 -71.5t-10 -58
t-18 -41.5t-28.5 -30.5t-40.5 -16t-55.5 -6q-39 0 -67 10.5t-43 25.5t-23.5 38t-10.5 40.5t-2 40.5zM383 336l-73 -28q-31 -12 -44.5 -24t-20.5 -41t-7 -85h241v-62h-304q-1 105 7.5 153t29.5 70t72 43l63 25q21 8 30 13t20.5 17t16 31.5t4.5 49.5q0 60 -18 85t-71 25
q-55 0 -71.5 -27t-16.5 -88v-14h-63q0 27 0.5 42t3.5 38t8.5 36.5t17 29.5t27.5 24.5t40 14.5t56 6q82 0 116 -38t34 -123q0 -80 -21 -116t-77 -57zM671 367q52 0 70.5 31t18.5 98q0 68 -23 90.5t-68 22.5q-52 0 -70.5 -28t-18.5 -102q0 -65 21 -88.5t70 -23.5zM500 854
q128 0 237 -62.5t173 -172t64 -239.5q0 -196 -139 -335t-335 -139t-335 139t-139 335q0 130 64 239.5t173 172t237 62.5zM500 819q-181 0 -310 -128t-129 -311q0 -119 59 -220t160 -160t220 -59q182 0 310.5 128.5t128.5 310.5q0 183 -129 311t-310 128z" />
    <glyph glyph-name="uni325A" unicode="&#x325a;" 
d="M500 854q128 0 237 -62.5t173 -172t64 -239.5q0 -196 -139 -335t-335 -139t-335 139t-139 335q0 130 64 239.5t173 172t237 62.5zM500 819q-181 0 -310 -128t-129 -311q0 -119 59 -220t160 -160t220 -59q182 0 310.5 128.5t128.5 310.5q0 183 -129 311t-310 128zM521 380
q0 70 3 113t12 80.5t26.5 56.5t45.5 29.5t71 10.5t71 -10.5t45.5 -29t26.5 -56t12 -81t3 -113.5t-3 -113.5t-12 -81t-26.5 -56t-45.5 -29t-71 -10.5t-71 10.5t-45.5 29t-26.5 56t-12 81t-3 113.5zM585 380q0 -145 16.5 -186.5t79.5 -41.5q60 0 76 43t16 185
q0 145 -16.5 186.5t-78.5 41.5q-61 0 -77 -43t-16 -185zM173 277h64q-2 -71 13 -98t77 -27q49 0 69.5 23.5t20.5 81.5q0 37 -8 59.5t-26 31t-32 10.5t-41 2h-39v59h44q57 0 78 16t21 78q0 46 -17 70.5t-68 24.5q-32 0 -51 -8t-26.5 -26.5t-9.5 -33.5t-2 -44h-64
q0 39 4.5 65.5t18.5 53.5t45.5 41t80.5 14q79 0 115.5 -36t36.5 -116q0 -50 -16 -82t-58 -45q17 -6 26 -10.5t23.5 -19t21.5 -42t7 -68.5q0 -89 -38.5 -125t-114.5 -36q-53 0 -86.5 13.5t-47.5 42.5t-18 57t-3 74z" />
    <glyph glyph-name="uni325B" unicode="&#x325b;" 
d="M500 854q128 0 237 -62.5t173 -172t64 -239.5q0 -196 -139 -335t-335 -139t-335 139t-139 335q0 130 64 239.5t173 172t237 62.5zM500 819q-181 0 -310 -128t-129 -311q0 -119 59 -220t160 -160t220 -59q182 0 310.5 128.5t128.5 310.5q0 183 -129 311t-310 128zM193 277
h64q-2 -71 13 -98t77 -27q49 0 69.5 23.5t20.5 81.5q0 37 -8 59.5t-26 31t-32 10.5t-41 2h-39v59h44q57 0 78 16t21 78q0 46 -17 70.5t-68 24.5q-32 0 -51 -8t-26.5 -26.5t-9.5 -33.5t-2 -44h-64q0 39 4.5 65.5t18.5 53.5t45.5 41t80.5 14q79 0 115.5 -36t36.5 -116
q0 -50 -16 -82t-58 -45q17 -6 26 -10.5t23.5 -19t21.5 -42t7 -68.5q0 -89 -38.5 -125t-114.5 -36q-53 0 -86.5 13.5t-47.5 42.5t-18 57t-3 74zM585 664h170v-568h-65v506h-105v62z" />
    <glyph glyph-name="uni325C" unicode="&#x325c;" 
d="M500 854q128 0 237 -62.5t173 -172t64 -239.5q0 -196 -139 -335t-335 -139t-335 139t-139 335q0 130 64 239.5t173 172t237 62.5zM500 819q-181 0 -310 -128t-129 -311q0 -119 59 -220t160 -160t220 -59q182 0 310.5 128.5t128.5 310.5q0 183 -129 311t-310 128zM173 277
h64q-2 -71 13 -98t77 -27q49 0 69.5 23.5t20.5 81.5q0 37 -8 59.5t-26 31t-32 10.5t-41 2h-39v59h44q57 0 78 16t21 78q0 46 -17 70.5t-68 24.5q-32 0 -51 -8t-26.5 -26.5t-9.5 -33.5t-2 -44h-64q0 39 4.5 65.5t18.5 53.5t45.5 41t80.5 14q79 0 115.5 -36t36.5 -116
q0 -50 -16 -82t-58 -45q17 -6 26 -10.5t23.5 -19t21.5 -42t7 -68.5q0 -89 -38.5 -125t-114.5 -36q-53 0 -86.5 13.5t-47.5 42.5t-18 57t-3 74zM727 336l-73 -28q-31 -12 -44.5 -24t-20.5 -41t-7 -85h241v-62h-304q-1 105 7.5 153t29.5 70t72 43l63 25q21 8 30 13t20.5 17
t16 31.5t4.5 49.5q0 60 -18 85t-71 25q-55 0 -71.5 -27t-16.5 -88v-14h-63q0 27 0.5 42t3.5 38t8.5 36.5t17 29.5t27.5 24.5t40 14.5t56 6q82 0 116 -38t34 -123q0 -80 -21 -116t-77 -57z" />
    <glyph glyph-name="uni325D" unicode="&#x325d;" 
d="M500 854q128 0 237 -62.5t173 -172t64 -239.5q0 -196 -139 -335t-335 -139t-335 139t-139 335q0 130 64 239.5t173 172t237 62.5zM500 819q-181 0 -310 -128t-129 -311q0 -119 59 -220t160 -160t220 -59q182 0 310.5 128.5t128.5 310.5q0 183 -129 311t-310 128zM173 277
h64q-2 -71 13 -98t77 -27q49 0 69.5 23.5t20.5 81.5q0 37 -8 59.5t-26 31t-32 10.5t-41 2h-39v59h44q57 0 78 16t21 78q0 46 -17 70.5t-68 24.5q-32 0 -51 -8t-26.5 -26.5t-9.5 -33.5t-2 -44h-64q0 39 4.5 65.5t18.5 53.5t45.5 41t80.5 14q79 0 115.5 -36t36.5 -116
q0 -50 -16 -82t-58 -45q17 -6 26 -10.5t23.5 -19t21.5 -42t7 -68.5q0 -89 -38.5 -125t-114.5 -36q-53 0 -86.5 13.5t-47.5 42.5t-18 57t-3 74zM517 277h64q-2 -71 13 -98t77 -27q49 0 69.5 23.5t20.5 81.5q0 37 -8 59.5t-26 31t-32 10.5t-41 2h-39v59h44q57 0 78 16t21 78
q0 46 -17 70.5t-68 24.5q-32 0 -51 -8t-26.5 -26.5t-9.5 -33.5t-2 -44h-64q0 39 4.5 65.5t18.5 53.5t45.5 41t80.5 14q79 0 115.5 -36t36.5 -116q0 -50 -16 -82t-58 -45q17 -6 26 -10.5t23.5 -19t21.5 -42t7 -68.5q0 -89 -38.5 -125t-114.5 -36q-53 0 -86.5 13.5t-47.5 42.5
t-18 57t-3 74z" />
    <glyph glyph-name="uni325E" unicode="&#x325e;" 
d="M701 664h90v-376h52v-61h-52v-131h-63v131h-215v70zM728 593l-154 -305h154v305zM500 854q128 0 237 -62.5t173 -172t64 -239.5q0 -196 -139 -335t-335 -139t-335 139t-139 335q0 130 64 239.5t173 172t237 62.5zM500 819q-181 0 -310 -128t-129 -311q0 -119 59 -220
t160 -160t220 -59q182 0 310.5 128.5t128.5 310.5q0 183 -129 311t-310 128zM173 277h64q-2 -71 13 -98t77 -27q49 0 69.5 23.5t20.5 81.5q0 37 -8 59.5t-26 31t-32 10.5t-41 2h-39v59h44q57 0 78 16t21 78q0 46 -17 70.5t-68 24.5q-32 0 -51 -8t-26.5 -26.5t-9.5 -33.5
t-2 -44h-64q0 39 4.5 65.5t18.5 53.5t45.5 41t80.5 14q79 0 115.5 -36t36.5 -116q0 -50 -16 -82t-58 -45q17 -6 26 -10.5t23.5 -19t21.5 -42t7 -68.5q0 -89 -38.5 -125t-114.5 -36q-53 0 -86.5 13.5t-47.5 42.5t-18 57t-3 74z" />
    </font>
</defs>
</svg>
